<svg xmlns="http://www.w3.org/2000/svg" xmlns:xlink="http://www.w3.org/1999/xlink" width="120" height="159.79017979581" viewBox="0 0 120 159.79017979581" fill="none"><defs><path id="path_0"
        transform="translate(0 0) rotate(0 60 79.895089897905)"
        d="M9.797174393178828e-16,143.79018C0,148.0336438374327 1.685709445846685,152.1033064438162 4.686291501015241,155.10388849898476C7.686873556183796,158.1044705541533 11.756536162567297,159.79018 16,159.79018L104,159.79018C112.83655599729269,159.79018 120,152.62673599729268 120,143.79018L120,16.000000000000004C120,11.756536162567292 118.31429055415332,7.686873556183787 115.31370849898475,4.6862915010152335C112.3131264438162,1.6857094458466797 108.2434638374327,-3.552713678800501e-15 104,-3.552713678800501e-15L16.000000000000004,0C11.756536162567299,-3.552713678800501e-15 7.686873556183793,1.6857094458466833 4.686291501015237,4.686291501015239C1.6857094458466815,7.686873556183794 -3.552713678800501e-15,11.7565361625673 -3.552713678800501e-15,16.000000000000004z" /><linearGradient id="linear_0" x1="47.971112502969696%" y1="-17.083465617734504%" x2="48.971112502969696%" y2="110.14425557178464%" gradientUnits="objectBoundingBox"><stop offset="0" stop-color="#C2E3F3" stop-opacity="1" /><stop offset="1" stop-color="#6AA3C1" stop-opacity="1" /></linearGradient><filter id="filter_2" x="-23" y="-23" width="166" height="205.79017979581" filterUnits="userSpaceOnUse" color-interpolation-filters="sRGB"><feFlood flood-opacity="0" result="BackgroundImageFix"/>
          <feColorMatrix in="SourceAlpha" type="matrix" values="0 0 0 0 0 0 0 0 0 0 0 0 0 0 0 0 0 0 127 0"/>
          <feOffset dx="4" dy="6"/>
          <feGaussianBlur stdDeviation="11.5"/>
          <feColorMatrix type="matrix" values="0 0 0 0 0.6627450980392157 0 0 0 0 0.6627450980392157 0 0 0 0 0.6627450980392157 0 0 0 0.07 0"/>
          <feBlend mode="normal" in2="BackgroundImageFix" result="effect1_Shadow"/>
          <feBlend mode="normal" in="SourceGraphic" in2="effect1_Shadow" result="shape"/></filter><linearGradient id="linear_1" x1="8.824318772767755%" y1="4.067156879708292%" x2="56.788268666430106%" y2="104.54378919172267%" gradientUnits="objectBoundingBox"><stop offset="0" stop-color="#EEEEEE" stop-opacity="0" /><stop offset="1" stop-color="#79B2D0" stop-opacity="1" /></linearGradient><filter id="filter_8" x="-42.10387844531476" y="-82.37987090799538" width="153.8048082810378" height="153.8048082810378" filterUnits="userSpaceOnUse" color-interpolation-filters="sRGB"><feFlood flood-opacity="0" result="BackgroundImageFix"/>
          <feColorMatrix in="SourceAlpha" type="matrix" values="0 0 0 0 0 0 0 0 0 0 0 0 0 0 0 0 0 0 127 0"/>
          <feOffset dx="0" dy="9"/>
          <feGaussianBlur stdDeviation="7"/>
          <feColorMatrix type="matrix" values="0 0 0 0 0.3686274509803922 0 0 0 0 0.5725490196078431 0 0 0 0 0.5803921568627451 0 0 0 0.36 0"/>
          <feBlend mode="normal" in2="BackgroundImageFix" result="effect1_Shadow"/>
          <feBlend mode="normal" in="SourceGraphic" in2="effect1_Shadow" result="shape"/></filter><linearGradient id="linear_2" x1="8.824318772767755%" y1="4.067156879708292%" x2="56.788268666430106%" y2="104.54378919172267%" gradientUnits="objectBoundingBox"><stop offset="0" stop-color="#EEEEEE" stop-opacity="0" /><stop offset="1" stop-color="#79B2D0" stop-opacity="1" /></linearGradient><filter id="filter_10" x="95.0000000000004" y="-77.20982020419001" width="153.8048082810378" height="153.8048082810378" filterUnits="userSpaceOnUse" color-interpolation-filters="sRGB"><feFlood flood-opacity="0" result="BackgroundImageFix"/>
          <feColorMatrix in="SourceAlpha" type="matrix" values="0 0 0 0 0 0 0 0 0 0 0 0 0 0 0 0 0 0 127 0"/>
          <feOffset dx="0" dy="9"/>
          <feGaussianBlur stdDeviation="7"/>
          <feColorMatrix type="matrix" values="0 0 0 0 0.3686274509803922 0 0 0 0 0.5725490196078431 0 0 0 0 0.5803921568627451 0 0 0 0.36 0"/>
          <feBlend mode="normal" in2="BackgroundImageFix" result="effect1_Shadow"/>
          <feBlend mode="normal" in="SourceGraphic" in2="effect1_Shadow" result="shape"/></filter><linearGradient id="linear_3" x1="50%" y1="0%" x2="51%" y2="100%" gradientUnits="objectBoundingBox"><stop offset="0" stop-color="#FFC931" stop-opacity="1" /><stop offset="1" stop-color="#FFA119" stop-opacity="1" /></linearGradient></defs><g opacity="1" transform="translate(0 0)  rotate(0 60 79.895089897905)"><mask id="mask-0" fill="white"><use xlink:href="#path_0"></use></mask><g mask="url(#mask-0)"><g id="Mask" filter="url(#filter_2)"><path id="Mask" fill-rule="evenodd" fill="url(#linear_0)" transform="translate(0 0)  rotate(0 60 79.895089897905)" opacity="1" d="M9.797174393178828e-16,143.79018C0,148.0336438374327 1.685709445846685,152.1033064438162 4.686291501015241,155.10388849898476C7.686873556183796,158.1044705541533 11.756536162567297,159.79018 16,159.79018L104,159.79018C112.83655599729269,159.79018 120,152.62673599729268 120,143.79018L120,16.000000000000004C120,11.756536162567292 118.31429055415332,7.686873556183787 115.31370849898475,4.6862915010152335C112.3131264438162,1.6857094458466797 108.2434638374327,-3.552713678800501e-15 104,-3.552713678800501e-15L16.000000000000004,0C11.756536162567299,-3.552713678800501e-15 7.686873556183793,1.6857094458466833 4.686291501015237,4.686291501015239C1.6857094458466815,7.686873556183794 -3.552713678800501e-15,11.7565361625673 -3.552713678800501e-15,16.000000000000004z " /></g></g><g mask="url(#mask-0)"><path  id="Path 3" style="stroke:#FFFFFF; stroke-width:1; stroke-opacity:1; stroke-dasharray:0 0" transform="translate(-29.91050143889711 34.65348248593841)  rotate(0 97.2498652204576 25.22445858583794)" d="M0,45.05996C0,45.05996 50.92197,62.12885 84.01999,25.134149999999998C117.11801,-11.861049999999999 147.99095,-3.391180000000002 194.49973,20.83439 " /></g><g mask="url(#mask-0)"><path  id="Path 2" style="stroke:#FFFFFF; stroke-width:1; stroke-opacity:1; stroke-dasharray:0 0" transform="translate(15.00204150395336 85.56019322993825)  rotate(0 61.27338698849465 36.416622222057335)" d="M0,72.83324C0,72.83324 55.56516,-16.299359999999993 122.54677,3.6474800000000016 " /></g><g mask="url(#mask-0)"><g id="Oval" filter="url(#filter_8)"><path id="Oval" fill-rule="evenodd" fill="url(#linear_1)" transform="translate(-28.10387844531476 -68.37987090799538)  rotate(0 62.9024041405189 62.9024041405189)" opacity="0.58" d="M125.80481,62.9024C125.80481,28.162660000000002 97.64215,0 62.90241,0C28.162670000000006,0 0.000010000000003174137,28.16266 0.000010000000003174137,62.9024C0.000010000000003174137,97.64214 28.162670000000002,125.8048 62.90241,125.8048C97.64215,125.8048 125.80481,97.64214 125.80481,62.9024z " /></g></g><g mask="url(#mask-0)"><g id="Oval Copy 4" filter="url(#filter_10)"><path id="Oval Copy 4" fill-rule="evenodd" fill="url(#linear_2)" transform="translate(109.0000000000004 -63.20982020419001)  rotate(0 62.9024041405189 62.9024041405189)" opacity="0.58" d="M125.80481,62.9024C125.80481,28.162660000000002 97.64215,0 62.90241,0C28.162670000000006,0 0.000010000000003174137,28.16266 0.000010000000003174137,62.9024C0.000010000000003174137,97.64214 28.162670000000002,125.8048 62.90241,125.8048C97.64215,125.8048 125.80481,97.64214 125.80481,62.9024z " /></g></g><g mask="url(#mask-0)"><path  id="Mask" style="stroke:#FFFFFF; stroke-width:1; stroke-opacity:1; stroke-dasharray:0 0" transform="translate(188 138.79017979580993)  rotate(0 4.9046321525885554 4.5)" d="M5.6158,8.35749C8.14169,6.06213 9.80926,4.55148 9.80926,2.6975700000000007C9.80926,1.1869200000000006 8.62234,8.881784197001252e-16 7.11171,8.881784197001252e-16C6.2583,8.881784197001252e-16 5.43923,0.3972600000000009 4.904630000000001,1.0251000000000008C4.370030000000001,0.39726000000000083 3.550950000000001,8.881784197001252e-16 2.697550000000001,8.881784197001252e-16C1.186920000000001,8.881784197001252e-16 8.881784197001252e-16,1.1869200000000009 8.881784197001252e-16,2.6975700000000007C8.881784197001252e-16,4.551480000000001 1.6675700000000009,6.062130000000001 4.193460000000001,8.352630000000001L4.3010661377585935,8.450582649016102C4.64351879918271,8.762313429878809 5.16663065616228,8.76329423120938 5.510249856398811,8.452849791280848z " /></g><g mask="url(#mask-0)"><path id="Rectangle" fill-rule="evenodd" fill="url(#linear_3)" transform="translate(0 -1.6577979812808505)  rotate(0 20 10)" opacity="1" d="M0,20L30,20C32.65216489839544,20 35.19570402738513,18.94643159634582 37.071067811865476,17.071067811865476C38.946431596345825,15.195704027385126 40,12.652164898395437 40,9.999999999999998L40,0L10.000000000000002,0C7.34783510160456,0 4.804295972614871,1.053568403654177 2.9289321881345236,2.9289321881345245C1.053568403654177,4.804295972614872 -1.7763568394002505e-15,7.347835101604563 -1.7763568394002505e-15,10.000000000000004z " /></g></g></svg>