<svg xmlns="http://www.w3.org/2000/svg" xmlns:xlink="http://www.w3.org/1999/xlink" width="120" height="121" viewBox="0 0 120 121" fill="none"><defs><path id="path_0"
        transform="translate(0 0.2315398313485305) rotate(0 59.99999999999985 60)"
        d="M4.898587196589414e-16,112C0,114.12173191871635 0.8428547229233425,116.1565632219081 2.3431457505076203,117.65685424949238C3.843436778091898,119.15714527707667 5.8782680812836485,120 8,120L112,120C116.41827799864635,120 120,116.41827799864635 120,112L120,8.000000000000002C120,5.878268081283646 119.15714527707665,3.8434367780918937 117.65685424949238,2.3431457505076168C116.1565632219081,0.8428547229233398 114.12173191871635,-1.7763568394002505e-15 112,-1.7763568394002505e-15L8.000000000000002,0C5.878268081283649,-1.7763568394002505e-15 3.8434367780918963,0.8428547229233416 2.3431457505076185,2.3431457505076194C0.8428547229233407,3.843436778091897 -1.7763568394002505e-15,5.87826808128365 -1.7763568394002505e-15,8.000000000000002z" /><linearGradient id="linear_0" x1="47.971112502969696%" y1="-17.083465617734504%" x2="48.971112502969696%" y2="110.14425557178464%" gradientUnits="objectBoundingBox"><stop offset="0" stop-color="#C2E3F3" stop-opacity="1" /><stop offset="1" stop-color="#6AA3C1" stop-opacity="1" /></linearGradient><filter id="filter_2" x="-23" y="-22.76846016865147" width="165.99999999999972" height="166" filterUnits="userSpaceOnUse" color-interpolation-filters="sRGB"><feFlood flood-opacity="0" result="BackgroundImageFix"/>
          <feColorMatrix in="SourceAlpha" type="matrix" values="0 0 0 0 0 0 0 0 0 0 0 0 0 0 0 0 0 0 127 0"/>
          <feOffset dx="4" dy="6"/>
          <feGaussianBlur stdDeviation="11.5"/>
          <feColorMatrix type="matrix" values="0 0 0 0 0.6627450980392157 0 0 0 0 0.6627450980392157 0 0 0 0 0.6627450980392157 0 0 0 0.07 0"/>
          <feBlend mode="normal" in2="BackgroundImageFix" result="effect1_Shadow"/>
          <feBlend mode="normal" in="SourceGraphic" in2="effect1_Shadow" result="shape"/></filter><linearGradient id="linear_1" x1="8.824318772767755%" y1="4.067156879708292%" x2="56.788268666430106%" y2="104.54378919172267%" gradientUnits="objectBoundingBox"><stop offset="0" stop-color="#EEEEEE" stop-opacity="0" /><stop offset="1" stop-color="#79B2D0" stop-opacity="1" /></linearGradient><filter id="filter_8" x="-45.01306330624891" y="-89.22670232797596" width="166.8275462065545" height="166.8275462065546" filterUnits="userSpaceOnUse" color-interpolation-filters="sRGB"><feFlood flood-opacity="0" result="BackgroundImageFix"/>
          <feColorMatrix in="SourceAlpha" type="matrix" values="0 0 0 0 0 0 0 0 0 0 0 0 0 0 0 0 0 0 127 0"/>
          <feOffset dx="0" dy="9"/>
          <feGaussianBlur stdDeviation="7"/>
          <feColorMatrix type="matrix" values="0 0 0 0 0.3686274509803922 0 0 0 0 0.5725490196078431 0 0 0 0 0.5803921568627451 0 0 0 0.36 0"/>
          <feBlend mode="normal" in2="BackgroundImageFix" result="effect1_Shadow"/>
          <feBlend mode="normal" in="SourceGraphic" in2="effect1_Shadow" result="shape"/></filter><linearGradient id="linear_2" x1="8.824318772767755%" y1="4.067156879708292%" x2="56.788268666430106%" y2="104.54378919172267%" gradientUnits="objectBoundingBox"><stop offset="0" stop-color="#EEEEEE" stop-opacity="0" /><stop offset="1" stop-color="#79B2D0" stop-opacity="1" /></linearGradient><filter id="filter_10" x="65.04619449726013" y="-78.0437005064339" width="166.8275462065547" height="166.8275462065547" filterUnits="userSpaceOnUse" color-interpolation-filters="sRGB"><feFlood flood-opacity="0" result="BackgroundImageFix"/>
          <feColorMatrix in="SourceAlpha" type="matrix" values="0 0 0 0 0 0 0 0 0 0 0 0 0 0 0 0 0 0 127 0"/>
          <feOffset dx="0" dy="9"/>
          <feGaussianBlur stdDeviation="7"/>
          <feColorMatrix type="matrix" values="0 0 0 0 0.3686274509803922 0 0 0 0 0.5725490196078431 0 0 0 0 0.5803921568627451 0 0 0 0.36 0"/>
          <feBlend mode="normal" in2="BackgroundImageFix" result="effect1_Shadow"/>
          <feBlend mode="normal" in="SourceGraphic" in2="effect1_Shadow" result="shape"/></filter></defs><g opacity="1" transform="translate(0 0)  rotate(0 60 60.5)"><mask id="mask-0" fill="white"><use xlink:href="#path_0"></use></mask><g mask="url(#mask-0)"><g id="Mask" filter="url(#filter_2)"><path id="Mask" fill-rule="evenodd" fill="url(#linear_0)" transform="translate(0 0.2315398313485305)  rotate(0 59.99999999999985 60)" opacity="1" d="M4.898587196589414e-16,112C0,114.12173191871635 0.8428547229233425,116.1565632219081 2.3431457505076203,117.65685424949238C3.843436778091898,119.15714527707667 5.8782680812836485,120 8,120L112,120C116.41827799864635,120 120,116.41827799864635 120,112L120,8.000000000000002C120,5.878268081283646 119.15714527707665,3.8434367780918937 117.65685424949238,2.3431457505076168C116.1565632219081,0.8428547229233398 114.12173191871635,-1.7763568394002505e-15 112,-1.7763568394002505e-15L8.000000000000002,0C5.878268081283649,-1.7763568394002505e-15 3.8434367780918963,0.8428547229233416 2.3431457505076185,2.3431457505076194C0.8428547229233407,3.843436778091897 -1.7763568394002505e-15,5.87826808128365 -1.7763568394002505e-15,8.000000000000002z " /></g></g><g mask="url(#mask-0)"><path  id="Path 3" style="stroke:#FFFFFF; stroke-width:1; stroke-opacity:1; stroke-dasharray:0 0" transform="translate(-33.00669964293874 38.47219220997319)  rotate(0 107.3167261406594 27.83557908246153)" d="M0,49.72437C0,49.72437 56.19318,68.56015 92.71736,27.73593C129.24153,-13.088840000000001 163.31029999999998,-3.74221 214.63344999999998,22.99108 " /></g><g mask="url(#mask-0)"><path  id="Path 2" style="stroke:#FFFFFF; stroke-width:1; stroke-opacity:1; stroke-dasharray:0 0" transform="translate(16.55498417381756 84.71689383680494)  rotate(0 67.6161275519347 40.186304270067616)" d="M0,80.37261C0,80.37261 61.31701,-17.986580000000004 135.23226,4.025059999999996 " /></g><g mask="url(#mask-0)"><g id="Oval" filter="url(#filter_8)"><path id="Oval" fill-rule="evenodd" fill="url(#linear_1)" transform="translate(-31.01306330624891 -75.22670232797596)  rotate(0 69.41377310327725 69.4137731032773)" opacity="0.58" d="M138.82755,69.41377C138.82755,31.077930000000002 107.74962000000001,0 69.41378,0C31.077940000000005,0 0.000010000000003174137,31.07793 0.000010000000003174137,69.41377C0.000010000000003174137,107.74960999999999 31.07794,138.82754 69.41378,138.82754C107.74962,138.82754 138.82755,107.74961 138.82755,69.41377z " /></g></g><g mask="url(#mask-0)"><g id="Oval Copy 4" filter="url(#filter_10)"><path id="Oval Copy 4" fill-rule="evenodd" fill="url(#linear_2)" transform="translate(79.04619449726013 -64.0437005064339)  rotate(0 69.41377310327735 69.41377310327735)" opacity="0.58" d="M138.82755,69.41377C138.82755,31.077930000000002 107.74962000000001,0 69.41378,0C31.077940000000005,0 0.000010000000003174137,31.07793 0.000010000000003174137,69.41377C0.000010000000003174137,107.74960999999999 31.07794,138.82754 69.41378,138.82754C107.74962,138.82754 138.82755,107.74961 138.82755,69.41377z " /></g></g></g></svg>