<svg xmlns="http://www.w3.org/2000/svg" xmlns:xlink="http://www.w3.org/1999/xlink" width="36" height="36" viewBox="0 0 36 36" fill="none"><defs><linearGradient id="linear_0" x1="50%" y1="4.6433580729168416%" x2="51%" y2="100%" gradientUnits="objectBoundingBox"><stop offset="0" stop-color="#84B6FF" stop-opacity="1" /><stop offset="1" stop-color="#4F84F2" stop-opacity="1" /></linearGradient><filter id="filter_2" x="-2.909090909090909" y="-2.909090909090909" width="41.79759476152284" height="41.79759476152284" filterUnits="userSpaceOnUse" color-interpolation-filters="sRGB"><feFlood flood-opacity="0" result="BackgroundImageFix"/>
          <feColorMatrix in="SourceAlpha" type="matrix" values="0 0 0 0 0 0 0 0 0 0 0 0 0 0 0 0 0 0 127 0"/>
          <feOffset dx="0" dy="2"/>
          <feGaussianBlur stdDeviation="2"/>
          <feColorMatrix type="matrix" values="0 0 0 0 0.34509803921568627 0 0 0 0 0.5490196078431373 0 0 0 0 0.9568627450980393 0 0 0 0.56 0"/>
          <feBlend mode="normal" in2="BackgroundImageFix" result="effect1_Shadow"/>
          <feBlend mode="normal" in="SourceGraphic" in2="effect1_Shadow" result="shape"/></filter><path id="path_0"
        transform="translate(0.05825758753013607 0.7127298985237001) rotate(0 3.6953651233134828 3.6950076860524352)"
        d="M3.69573,7.39002C3.69573,7.39002 5.71968,7.39002 3.7192000000000003,7.38995C3.71138,7.39 3.7035600000000004,7.39002 3.69573,7.39002zM7.39073,3.69501C7.39073,1.6543299999999999 5.736319999999999,0 3.6957299999999997,0L-4.440892098500626e-16,0L-4.440892098500626e-16,3.6956C-4.440892098500626e-16,5.7359100000000005 1.6540499999999996,7.38994 3.6943999999999995,7.38994C3.7027399999999995,7.38994 3.7109999999999994,7.38994 3.7191999999999994,7.38994C5.7489799999999995,7.3773100000000005 7.39072,5.72785 7.39072,3.6950100000000003z" /></defs><g opacity="1" transform="translate(0 0)  rotate(0 18 18)"><g id="Oval" filter="url(#filter_2)"><path id="Oval" fill-rule="evenodd" fill="url(#linear_0)" transform="translate(1.0909090909090908 1.0909090909090908)  rotate(0 16.89879738076142 16.89879738076142)" opacity="1" d="M33.79759,16.8988C33.79759,7.565930000000002 26.231659999999998,0 16.898789999999998,0C7.565919999999998,0 -0.000010000000003174137,7.56593 -0.000010000000003174137,16.8988C-0.000010000000003174137,26.23167 7.565919999999997,33.7976 16.898789999999998,33.7976C26.231659999999998,33.7976 33.79759,26.23167 33.79759,16.8988z " /></g><g opacity="1" transform="translate(10.449267362963237 9.010075182759774)  rotate(0 8.727272727272727 9.272727272727272)"><path id="Path" fill-rule="evenodd" style="fill:#FFFFFF" transform="translate(0.04804890246453418 0.6384714385267916)  rotate(0 3.6953204436558553 3.6950076860524383)" opacity="1" d="M0,3.69501C0,5.73569 1.65432,7.39002 3.69502,7.39002L7.390639999999999,7.39002L7.390639999999999,3.69427C7.390639999999999,1.6540300000000001 5.736689999999999,0 3.6963499999999994,0C1.6543199999999993,0 3.6950199999999995,0 3.6950199999999995,0C1.6543199999999993,0 -4.440892098500626e-16,1.65433 -4.440892098500626e-16,3.69501z " /><path id="Path" fill-rule="evenodd" style="fill:#FFFFFF" transform="translate(8.876749250274077 0.6377565640047066)  rotate(0 3.6950523657100636 3.6953651233134845)" opacity="1" d="M0 3.695C0 1.65434 1.65427 5.41143e-06 3.69512 1.32758e-11C5.72785 0 7.3774 1.64167 7.39003 3.67152C7.39005 3.00988 7.39007 2.78848 7.39008 2.78848C7.3901 2.78848 7.3901 3.695 7.3901 3.695L7.39003 3.67153L7.39003 3.69647C7.39003 5.73676 5.73598 7.39073 3.69572 7.39073L0 7.39073L0 3.695Z" /><g opacity="1" transform="translate(8.81858102205697 8.739786960111203)  rotate(0 3.818181818181818 4.363636363636363)"><mask id="mask-0" fill="white"><use xlink:href="#path_0"></use></mask><g mask="url(#mask-0)"><path id="Mask" fill-rule="evenodd" style="fill:#FFFFFF" transform="translate(0.05825758753013607 0.7127298985237001)  rotate(0 3.6953651233134828 3.6950076860524352)" opacity="1" d="M3.69573 0C5.73632 0 7.39073 1.65433 7.39073 3.69501L7.39072 3.69501C7.39072 5.72785 5.74898 7.37731 3.7192 7.38994L3.6944 7.38994C1.65405 7.38994 0 5.73591 0 3.6956L0 0L3.69573 0ZM3.69573 7.39002C3.69573 7.39002 4.60226 7.39002 4.60226 7.39C4.60226 7.38999 4.38085 7.38997 3.7192 7.38995L3.69573 7.39002Z" /></g></g><path id="Path" fill-rule="evenodd" style="fill:#FFFFFF" transform="translate(0.04876377698610888 9.452516858634857)  rotate(0 3.6950076860524463 3.6946502487913855)" opacity="1" d="" /></g></g></svg>