<svg xmlns="http://www.w3.org/2000/svg" xmlns:xlink="http://www.w3.org/1999/xlink" width="34" height="34" viewBox="0 0 34 34" fill="none"><defs><linearGradient id="linear_0" x1="50%" y1="0%" x2="51%" y2="100%" gradientUnits="objectBoundingBox"><stop offset="0" stop-color="#FFD04B" stop-opacity="1" /><stop offset="1" stop-color="#FF9B50" stop-opacity="1" /></linearGradient><filter id="filter_2" x="-3.909090909090878" y="-3.909090909090878" width="41.79759476152284" height="41.79759476152284" filterUnits="userSpaceOnUse" color-interpolation-filters="sRGB"><feFlood flood-opacity="0" result="BackgroundImageFix"/>
          <feColorMatrix in="SourceAlpha" type="matrix" values="0 0 0 0 0 0 0 0 0 0 0 0 0 0 0 0 0 0 127 0"/>
          <feOffset dx="0" dy="2"/>
          <feGaussianBlur stdDeviation="2"/>
          <feColorMatrix type="matrix" values="0 0 0 0 0.9725490196078431 0 0 0 0 0.5450980392156862 0 0 0 0 0.16470588235294117 0 0 0 0.45 0"/>
          <feBlend mode="normal" in2="BackgroundImageFix" result="effect1_Shadow"/>
          <feBlend mode="normal" in="SourceGraphic" in2="effect1_Shadow" result="shape"/></filter></defs><g opacity="1" transform="translate(0 0)  rotate(0 17 17)"><g id="Oval" filter="url(#filter_2)"><path id="Oval" fill-rule="evenodd" fill="url(#linear_0)" transform="translate(0.09090909090912191 0.09090909090912191)  rotate(0 16.89879738076142 16.89879738076142)" opacity="1" d="M33.79759,16.8988C33.79759,7.565930000000002 26.231659999999998,0 16.898789999999998,0C7.565919999999998,0 -0.000010000000003174137,7.56593 -0.000010000000003174137,16.8988C-0.000010000000003174137,26.23167 7.565919999999997,33.7976 16.898789999999998,33.7976C26.231659999999998,33.7976 33.79759,26.23167 33.79759,16.8988z " /></g><g opacity="1" transform="translate(6.797852345124625 7.171524653488724)  rotate(0 11.454545454545455 9.818181818181815)"><g opacity="1" transform="translate(0.3666696870297362 0.1387109960900158)  rotate(0 10.90909090909091 9.27272727272727)"><g opacity="1" transform="translate(0 0)  rotate(0 10.90909090909091 9.27272727272727)"><g opacity="1" transform="translate(0 0)  rotate(0 10.90909090909091 9.27272727272727)"><path id="Oval" fill-rule="evenodd" style="fill:#FFFFFF" transform="translate(16.23183159207242 8.368434828009535)  rotate(0 2.423875651991729 2.4238756519917466)" opacity="1" d="M4.84775,2.42388C4.84775,1.08522 3.7625299999999995,0 2.4238699999999995,0C1.0852099999999996,0 -0.000010000000000509601,1.08522 -0.000010000000000509601,2.42388C-0.000010000000000509601,3.76254 1.0852099999999996,4.84776 2.4238699999999995,4.84776C3.7625299999999995,4.84776 4.84775,3.76254 4.84775,2.42388z " /><g opacity="1" transform="translate(0 5.454545454545454)  rotate(0 9.27272727272727 6.545454545454545)"><path id="Rectangle" fill-rule="evenodd" style="fill:#FFFFFF" transform="translate(1.0831074157531475 1.0100942206614718)  rotate(0 8.65369311478156 5.65086922296162)" opacity="1" d="M5.298859941273728e-16,2.6480449999999998C0,4.943147612042013 0.9117259626860132,7.144248796326255 2.534608583179878,8.76713141682012C4.157491203673743,10.390014037313986 6.358592387957985,11.30174 8.653694999999997,11.30174L8.653695,11.301739999999999C10.948797612042014,11.301739999999999 13.149898796326255,10.390014037313986 14.772781416820122,8.76713141682012C16.39566403731399,7.144248796326254 17.30739,4.943147612042013 17.30739,2.6480449999999998L17.30739,0L0,0z " /></g><g opacity="1" transform="translate(4.827709621445551 0)  rotate(0 4.909090909090908 4.363636363636363)"><path id="Path 4" fill-rule="evenodd" style="fill:#FFFFFF" transform="translate(6.582821490939011 0.5134776982835881)  rotate(0 1.181134457328131 3.6558261680151203)" opacity="1" d="M1.11504,7.18655c0.21109,0.18425 0.53158,0.16246 0.71584,-0.04862c0.18426,-0.21109 0.16248,-0.53156 -0.04862,-0.71581c-0.46369,-0.40477 -0.71128,-0.86109 -0.74676,-1.3294c-0.02121,-0.27982 0,-0.47913 0.10781,-0.61381c1.51608,-1.63459 1.6259,-3.15125 0.28482,-4.34985c-0.20892,-0.18667 -0.52964,-0.16868 -0.71636,0.04021c-0.18671,0.20889 -0.16871,0.52966 0.04021,0.71632c0.87794,0.78469 0.62749,1.77556 -0.31158,2.8639c-0.77577,0.78937 -0.51179,2.40151 0.67464,3.43706z M0.94308,6.2385c-0.1147,-0.16514 -0.206,-0.33647 -0.27336,-0.51236c0.07024,0.17279 0.16141,0.34572 0.27336,0.51236z M1.44507,6.80842c-0.19806,-0.17288 -0.36547,-0.36673 -0.50198,-0.56993c0.13677,0.19694 0.30681,0.38509 0.50198,0.56993z " /><path id="Path" fill-rule="evenodd" style="fill:#FFFFFF" transform="translate(3.3945882064017496 1.7756702471638732)  rotate(0 0.8985661367684495 2.8162872537821326)" opacity="1" d="M0.72051,3.52915C2.04636,2.20352 2.16571,1.0960999999999999 0.97804,0.06298000000000004C0.8712,-0.02995999999999996 0.70926,-0.01868999999999997 0.61631,0.08816000000000004C0.5233800000000001,0.19495000000000004 0.5346500000000001,0.35695 0.64149,0.44988000000000006C1.57961,1.26593 1.58125,2.05973 0.45477,3.0960600000000005L0.3882,3.1592600000000006C0.21542,3.3028300000000006 0.04746,3.6348200000000004 0.010050000000000003,3.9375700000000005C-0.06092,4.51175 0.24177,5.081600000000001 0.99118,5.58853C1.10848,5.667890000000001 1.2678699999999998,5.63708 1.34721,5.5198100000000005C1.42655,5.40254 1.39579,5.24314 1.27851,5.16377C0.67976,4.758730000000001 0.47442000000000006,4.37138 0.5189900000000001,4.00042C0.53876,3.83584 0.6163200000000001,3.63335 0.72052,3.52914z " /><path id="Path" fill-rule="evenodd" style="fill:#FFFFFF" transform="translate(0.873091412586291 3.127528107977639)  rotate(0 0.642505499189901 2.1853228597277927)" opacity="1" d="M0.85855,4.30613C0.96452,4.40006 1.12656,4.39026 1.22049,4.284319999999999C1.31441,4.178329999999999 1.30465,4.01627 1.1986700000000001,3.9223399999999993C0.72269,3.5005299999999995 0.5621100000000001,3.0997399999999993 0.5317100000000001,2.7778899999999993C0.5159200000000002,2.610709999999999 0.5741400000000001,2.424829999999999 0.6625400000000001,2.2894299999999994C1.3061500000000001,1.3034599999999994 1.3407,0.6815099999999994 0.4869600000000001,0.04785999999999957C0.3706700000000001,-0.038460000000000424 0.21067000000000013,-0.0029700000000004306 0.1303800000000001,0.11367999999999957C0.05009000000000011,0.2303299999999996 0.07957000000000011,0.38998999999999956 0.1962100000000001,0.47027999999999953C0.7946400000000001,0.8821699999999995 0.7598300000000001,1.3635499999999996 0.2822000000000001,2.0301599999999995C-0.19542999999999988,2.6967699999999994 -0.10694999999999988,3.4504499999999996 0.8585500000000001,4.30613z " /></g></g><path id="Path" fill-rule="evenodd" style="fill:#FFFFFF" transform="translate(0.7737246071865229 16.939192645765615)  rotate(0 8.96307592335015 0.5473727924777235)" opacity="1" d="M0,0.54737C0,0.84967 0.24505,1.09474 0.54729,1.09474L17.37887,1.09474C17.6811,1.09474 17.92616,0.84967 17.92616,0.54737C17.92616,0.24507 17.68111,0 17.37887,0L0.5472900000000003,0C0.24506000000000028,0 2.220446049250313e-16,0.24507 2.220446049250313e-16,0.54737z " /></g></g></g></g></svg>