<svg xmlns="http://www.w3.org/2000/svg" xmlns:xlink="http://www.w3.org/1999/xlink" width="16" height="15" viewBox="0 0 16 15" fill="none"><g opacity="1" transform="translate(-2.842170943040401e-14 0)  rotate(0 8 7.5)"><path id="Path" fill-rule="evenodd" style="fill:#F7BC38" transform="translate(4.030104386109656 11.42935918547573)  rotate(0 1.4422288650298516 1.434474946400659)" opacity="1" d="M0.87618,0.10856C0.7055899999999999,0.18091000000000002 0.55312,0.28173 0.41870999999999997,0.41095C0.28431999999999996,0.5402 0.18091999999999997,0.69268 0.10853999999999997,0.86843C0.036169999999999966,1.04418 -2.7755575615628914e-17,1.23029 -2.7755575615628914e-17,1.42673C-2.7755575615628914e-17,1.62317 0.03616999999999997,1.80925 0.10853999999999997,1.985C0.18090999999999996,2.16075 0.28431999999999996,2.31327 0.41870999999999997,2.44248C0.55313,2.57173 0.7056,2.6750900000000004 0.87618,2.7526400000000004C1.04677,2.8301900000000004 1.2354699999999998,2.8689500000000003 1.44223,2.8689500000000003C1.6386599999999998,2.8689500000000003 1.82477,2.8301900000000004 2.00052,2.7526400000000004C2.1762699999999997,2.6750900000000004 2.33134,2.5717200000000005 2.46575,2.4424800000000007C2.6001399999999997,2.3132600000000005 2.70354,2.1607500000000006 2.7759199999999997,1.9850000000000008C2.8482899999999995,1.8092500000000007 2.88446,1.623170000000001 2.88446,1.4267300000000007C2.88446,1.2302900000000008 2.84829,1.0441800000000008 2.7759199999999997,0.8684300000000007C2.70355,0.6926800000000007 2.6001399999999997,0.5401900000000007 2.46575,0.4109500000000007C2.33133,0.2817300000000007 2.1762699999999997,0.1809200000000007 2.00052,0.10856000000000071C1.8247699999999998,0.03618000000000071 1.6386599999999998,7.077671781985373e-16 1.44223,7.077671781985373e-16C1.2354699999999998,7.077671781985373e-16 1.04677,0.036180000000000705 0.8761799999999998,0.10856000000000071z " /><path id="Path" fill-rule="evenodd" style="fill:#F7BC38" transform="translate(10.48136468559812 11.46037485999295)  rotate(0 1.449982783659044 1.4344749464006565)" opacity="1" d="M2.78365,0.86843C2.7061300000000004,0.6926800000000001 2.60272,0.5401900000000001 2.4735,0.41095000000000004C2.34428,0.28173000000000004 2.18919,0.18092000000000003 2.00826,0.10856000000000005C1.82733,0.036180000000000045 1.63866,4.163336342344337e-17 1.44224,4.163336342344337e-17C1.2458,4.163336342344337e-17 1.05971,0.03618000000000004 0.88394,0.10856000000000005C0.7081999999999999,0.18091000000000004 0.55569,0.28173000000000004 0.42646999999999996,0.41095000000000004C0.29724999999999996,0.5402 0.19382999999999995,0.69268 0.11631999999999998,0.86843C0.038769999999999985,1.04418 -2.7755575615628914e-17,1.23029 -2.7755575615628914e-17,1.42673C-2.7755575615628914e-17,1.62317 0.03876999999999997,1.80925 0.11631999999999998,1.985C0.19383999999999998,2.16075 0.29725,2.31327 0.42646999999999996,2.44248C0.55569,2.57173 0.7081999999999999,2.6750900000000004 0.88394,2.7526400000000004C1.05971,2.8301900000000004 1.2458,2.8689500000000003 1.44224,2.8689500000000003C1.63865,2.8689500000000003 1.82733,2.8301900000000004 2.00826,2.7526400000000004C2.18919,2.6750900000000004 2.34428,2.5717200000000005 2.4735,2.4424800000000007C2.60272,2.3132600000000005 2.70614,2.1607500000000006 2.78365,1.9850000000000008C2.8612,1.8092500000000007 2.89997,1.623170000000001 2.89997,1.4267300000000007C2.89997,1.2302900000000008 2.8612,1.0441800000000008 2.78365,0.8684300000000007z " /><path id="Path" fill-rule="evenodd" style="fill:#F7BC38" transform="translate(0.3392391186141595 0.3722712202475122)  rotate(0 7.64951764834164 4.922209330240033)" opacity="1" d="M3.28761,0.57403C3.25671,0.47834000000000004 3.205,0.38748000000000005 3.13263,0.30134000000000005C3.0602699999999996,0.21530000000000005 2.9620499999999996,0.14353000000000005 2.83797,0.08614000000000005C2.7138899999999997,0.028750000000000053 2.54851,5.551115123125783e-17 2.3416699999999997,5.551115123125783e-17L1.8144699999999996,5.551115123125783e-17L1.4267899999999996,5.551115123125783e-17L1.1165299999999996,5.551115123125783e-17L0.7753599999999996,5.551115123125783e-17C0.5376099999999996,5.551115123125783e-17 0.3489799999999996,0.06222000000000005 0.2092999999999996,0.18655000000000005C0.06976999999999961,0.31089000000000006 0.000009999999999593667,0.46879000000000004 0.000009999999999593667,0.6601600000000001C0.000009999999999593667,0.75575 0.012859999999999594,0.8609900000000001 0.038719999999999595,0.97587C0.0645799999999996,1.09066 0.1110799999999996,1.19826 0.1783999999999996,1.29867C0.24555999999999958,1.39918 0.3307799999999996,1.48522 0.4341999999999996,1.5569899999999999C0.5376199999999995,1.6287599999999998 0.6668999999999996,1.6646899999999998 0.8218799999999996,1.6646899999999998L1.472074092836293,1.6646899999999998C1.7708703222283992,1.664668803711877 2.028636754141827,1.8744122933793292 2.0893601663401897,2.1669731492011746C2.239456584991327,2.8903843560963165 2.5134983030303024,4.21319504040404 2.6517999999999997,4.893459999999999C2.7345699999999997,5.30486 2.8173399999999997,5.713889999999999 2.8999499999999996,6.120469999999999C2.9827199999999996,6.5270399999999995 3.0576799999999995,6.89542 3.1248499999999995,7.225509999999999C3.1920099999999993,7.555489999999999 3.2489299999999997,7.830549999999999 3.2954299999999996,8.050569999999999C3.3419399999999997,8.270689999999998 3.3703999999999996,8.409399999999998 3.3808,8.466789999999998C3.4116999999999997,8.610319999999998 3.4556099999999996,8.763299999999997 3.51252,8.926029999999997C3.5694299999999997,9.088659999999997 3.6444,9.239279999999997 3.7374199999999997,9.377989999999997C3.83044,9.516799999999996 3.94671,9.629119999999997 4.08639,9.715259999999997C4.2259199999999995,9.801399999999997 4.3991,9.844419999999998 4.60579,9.844419999999998L5.45871,9.844419999999998L6.9474599999999995,9.844419999999998L8.76193,9.844419999999998L10.54534,9.844419999999998L11.98758,9.844419999999998L12.73203,9.844419999999998C13.02149,9.844419999999998 13.21533,9.775019999999998 13.31355,9.636309999999998C13.411769999999999,9.497599999999998 15.21323,3.2144999999999984 15.24429,3.128359999999998C15.27519,3.042319999999998 15.2934,2.939449999999998 15.298449999999999,2.819839999999998C15.30365,2.700329999999998 15.27259,2.5879099999999977 15.20543,2.482669999999998C15.13827,2.3774299999999977 15.0246,2.288929999999998 14.86426,2.217169999999998C14.70408,2.145399999999998 14.47918,2.109569999999998 14.189729999999999,2.109569999999998L4.135555876426087,2.109569999999998C3.816565032322699,2.1080485857765447 3.5444123149149753,1.8783840501905578 3.4892799999999986,1.5641899999999984C3.5822999999999983,2.109569999999998 3.5203399999999982,1.736369999999998 3.489279999999998,1.564189999999998C3.4686299999999983,1.420659999999998 3.447969999999998,1.279589999999998 3.427319999999998,1.140879999999998C3.406509999999998,1.0021699999999978 3.3858599999999983,0.8944699999999979 3.365209999999998,0.8179799999999979C3.344559999999998,0.7510399999999979 3.318699999999998,0.6697199999999979 3.287639999999998,0.5740399999999979z " /></g></svg>