<svg xmlns="http://www.w3.org/2000/svg" xmlns:xlink="http://www.w3.org/1999/xlink" width="28" height="26.133333333333326" viewBox="0 0 28 26.133333333333326" fill="none"><defs><filter id="filter_2" x="1.631093417962374" y="1.808563454734493" width="25.2000065149158" height="23.52835464477539" filterUnits="userSpaceOnUse" color-interpolation-filters="sRGB"></filter></defs><g opacity="1" transform="translate(0 -3.552713678800501e-15)  rotate(0 14 13.066666666666665)"><path id="Path" fill-rule="evenodd" style="fill:#74A1B9" transform="translate(2.590722220423559 3.783011489511137)  rotate(-22 10.512745731757345 3.983333184915373)" opacity="1" d="M19.17168,1.26001c0.328,0 0.59376,0.26585 0.59376,0.59376l-0.00001,-0.00001c-0.00001,-0.32791 -0.26576,-0.59375 -0.59376,-0.59375z M2.92023,1.26001l-2.92023,-1.26001l0.00001,0l2.92023,1.26001z M19.46687,5.40132c0.1846,-0.10579 0.29856,-0.30233 0.29856,-0.5152v-0.00001c0,0.21287 -0.11396,0.40941 -0.29856,0.5152c-0.99556,0.57033 -1.7079,1.21388 -2.11348,1.96968l0,0c0.40558,-0.7558 1.11792,-1.39934 2.11348,-1.96967z M21.0255,4.88612c0,0.6645 -0.35575,1.27825 -0.93227,1.60855c-0.80822,0.46294 -1.35152,0.95361 -1.62948,1.472l-1.11036,-0.59567c0,0 0,-0.00001 0,-0.00001l1.11036,0.59567c0.27796,-0.51839 0.82126,-1.00906 1.62948,-1.472c0.57652,-0.3303 0.93227,-0.94405 0.93227,-1.60855z M19.17168,0.00001c1.02394,0 1.85382,0.82996 1.85382,1.85376v-0.00001c0,-1.0238 -0.82988,-1.85376 -1.85382,-1.85376h-19.17167z " /><path  id="Path Copy 5" style="stroke:#74A1B9; stroke-width:1.35; stroke-opacity:1; stroke-dasharray:0 0" transform="translate(0.79108381852403 7.896644568491757)  rotate(0 13.44 8.805517241379315)" d="M1.8000000000000003,0C1.3226103182888211,0 0.8647732750706769,0.18964231265775178 0.5272077938642143,0.5272077938642143C0.18964231265775178,0.8647732750706769 -2.220446049250313e-16,1.3226103182888205 -2.220446049250313e-16,1.7999999999999998L7.880343193910241e-17,4.737952291149278C0.028724891064684233,5.524765650720784 0.4504617260111128,6.244626901039045 1.1227641823124355,6.654394871258879C1.894581570704235,7.1643416553937405 2.78074,7.938599943384362 2.78074,8.80552C2.78074,10.341199999999999 0,11.586129999999999 0,11.586129999999999L1.102182119232618e-16,15.811039999999998C2.220446049250313e-16,16.288429681711175 0.189642312657752,16.74626672492932 0.5272077938642143,17.08383220613578C0.8647732750706767,17.421397687342246 1.3226103182888207,17.611039999999996 1.8,17.611039999999996L25.08,17.61104C25.55738968171118,17.611039999999996 26.01522672492932,17.421397687342246 26.352792206135785,17.08383220613578C26.690357687342246,16.74626672492932 26.88,16.288429681711175 26.88,15.811039999999997L26.88,12.190523835757574C26.873611062023393,11.821373071346565 26.66766098993528,11.484679194435065 26.341927854605554,11.310865990270468C25.533524325619833,10.861354432231405 24.099259999999997,9.908424636363636 24.099259999999997,8.80552C24.099259999999997,7.7026225454545445 25.533524325619833,6.749689615702478 26.341927854605558,6.300175720901578C26.66766115221004,6.126361440759569 26.873611108482717,5.789666799932202 26.879999999999995,5.420515384907476L26.88,1.8000000000000003C26.88,1.3226103182888205 26.690357687342246,0.8647732750706763 26.352792206135785,0.5272077938642139C26.01522672492932,0.18964231265775155 25.557389681711175,-6.661338147750939e-16 25.08,-2.220446049250313e-16z " /><path  id="Line 4 Copy 2" style="stroke:#74A1B9; stroke-width:1.35; stroke-opacity:1; stroke-dasharray:0 0" transform="translate(11.79060530211351 14.0804099358135)  rotate(0 4.034158456992255 0.4634482758620688)" d="M0.57632,0.46345L7.492,0.46345 " /><path  id="Line 4 Copy 3" style="stroke:#74A1B9; stroke-width:1.35; stroke-opacity:1; stroke-dasharray:0 0" transform="translate(11.79060530211351 18.37367742887238)  rotate(0 4.034158456992255 0.46344827586206705)" d="M0.57632,0.46345L7.492,0.46345 " /><path id="Oval Copy 11" fill-rule="evenodd" style="fill:#74A1B9" transform="translate(8.255098426190207 18.01814399245168)  rotate(0 0.818981712282638 0.818981712282639)" opacity="1" d="M1.63796,0.81898C1.63796,0.36667000000000005 1.27129,0 0.81898,0C0.36667000000000005,0 0,0.36667 0,0.81898C0,1.27129 0.36667,1.63796 0.81898,1.63796C1.27129,1.63796 1.63796,1.27129 1.63796,0.81898z " /><path id="Oval Copy 12" fill-rule="evenodd" style="fill:#74A1B9" transform="translate(8.255098426190207 13.89855574985346)  rotate(0 0.818981712282638 0.818981712282638)" opacity="1" d="M1.63796,0.81898C1.63796,0.36667000000000005 1.27129,0 0.81898,0C0.36667000000000005,0 0,0.36667 0,0.81898C0,1.27129 0.36667,1.63796 0.81898,1.63796C1.27129,1.63796 1.63796,1.27129 1.63796,0.81898z " /></g></svg>