<svg xmlns="http://www.w3.org/2000/svg" xmlns:xlink="http://www.w3.org/1999/xlink" width="36" height="36" viewBox="0 0 36 36" fill="none"><defs><linearGradient id="linear_0" x1="50%" y1="4.6433580729168416%" x2="51%" y2="100%" gradientUnits="objectBoundingBox"><stop offset="0" stop-color="#FFB277" stop-opacity="1" /><stop offset="1" stop-color="#FF8F6D" stop-opacity="1" /></linearGradient><filter id="filter_2" x="-2.909090909090909" y="-2.909090909090909" width="41.79759476152284" height="41.79759476152284" filterUnits="userSpaceOnUse" color-interpolation-filters="sRGB"><feFlood flood-opacity="0" result="BackgroundImageFix"/>
          <feColorMatrix in="SourceAlpha" type="matrix" values="0 0 0 0 0 0 0 0 0 0 0 0 0 0 0 0 0 0 127 0"/>
          <feOffset dx="0" dy="2"/>
          <feGaussianBlur stdDeviation="2"/>
          <feColorMatrix type="matrix" values="0 0 0 0 0.9686274509803922 0 0 0 0 0.42745098039215684 0 0 0 0 0.27450980392156865 0 0 0 0.38 0"/>
          <feBlend mode="normal" in2="BackgroundImageFix" result="effect1_Shadow"/>
          <feBlend mode="normal" in="SourceGraphic" in2="effect1_Shadow" result="shape"/></filter></defs><g opacity="1" transform="translate(0 0)  rotate(0 18 18)"><g id="Oval" filter="url(#filter_2)"><path id="Oval" fill-rule="evenodd" fill="url(#linear_0)" transform="translate(1.0909090909090908 1.0909090909090908)  rotate(0 16.89879738076142 16.89879738076142)" opacity="1" d="M33.79759,16.8988C33.79759,7.565930000000002 26.231659999999998,0 16.898789999999998,0C7.565919999999998,0 -0.000010000000003174137,7.56593 -0.000010000000003174137,16.8988C-0.000010000000003174137,26.23167 7.565919999999997,33.7976 16.898789999999998,33.7976C26.231659999999998,33.7976 33.79759,26.23167 33.79759,16.8988z " /></g><g opacity="1" transform="translate(7.636363636363636 9.262433744397784)  rotate(0 10.363636363636363 8.727272727272727)"><path id="Combined Shape" fill-rule="evenodd" style="fill:#FFFFFF" transform="translate(0.24932519419609997 0.24423822094203468)  rotate(0 10.198815554836521 8.140170633072382)" opacity="1" d="M12.75116,1.06413c-0.1169,0.1169 -0.27545,0.18258 -0.44078,0.18258h-4.67518c-0.16532,0 -0.32388,-0.06567 -0.44078,-0.18258c-0.1169,-0.1169 -0.18258,-0.27545 -0.18258,-0.44078c0,-0.16532 0.06567,-0.32388 0.18258,-0.44078c0.1169,-0.1169 0.27545,-0.18258 0.44078,-0.18258h4.67518c0.16532,0 0.32388,0.06567 0.44078,0.18258c0.1169,0.1169 0.18258,0.27545 0.18258,0.44078c0,0.16532 -0.06567,0.32388 -0.18258,0.44078z M1.97396,3.94313c0,-0.53043 0.21071,-1.03914 0.58579,-1.41421c0.37507,-0.37507 0.88378,-0.58579 1.41421,-0.58579l12.4497,0c0.53043,0 1.03914,0.21071 1.41421,0.58579c0.37507,0.37507 0.58579,0.88378 0.58579,1.41421l0,2.32796h1.35061c0.16532,0 0.32388,0.06567 0.44078,0.18258c0.1169,0.1169 0.18258,0.27545 0.18258,0.44078c0,0.16532 -0.06567,0.32388 -0.18258,0.44078c-0.1169,0.1169 -0.27545,0.18258 -0.44078,0.18258l-1.35061,0v6.76254c0,1.10457 -0.89543,2 -2,2h-12.4497c-0.53043,0 -1.03914,-0.21071 -1.41421,-0.58579c-0.37507,-0.37507 -0.58579,-0.88378 -0.58579,-1.41421l0,-6.76254l-1.35061,0c-0.16532,0 -0.32388,-0.06567 -0.44078,-0.18258c-0.1169,-0.1169 -0.18258,-0.27545 -0.18258,-0.44078c0,-0.16532 0.06567,-0.32388 0.18258,-0.44078c0.1169,-0.1169 0.27545,-0.18258 0.44078,-0.18258l1.35061,0z M7.71144,10.30596c0,0.26522 0.10536,0.51957 0.29289,0.70711c0.18754,0.18754 0.44189,0.29289 0.70711,0.29289h2.97476c0.55228,0 1,-0.44772 1,-1v-2.41151c0,-0.13039 -0.02547,-0.25816 -0.07364,-0.37665l-4.82747,0c-0.04818,0.11849 -0.07364,0.24626 -0.07364,0.37665z " /></g></g></svg>