<svg xmlns="http://www.w3.org/2000/svg" xmlns:xlink="http://www.w3.org/1999/xlink" width="36" height="36" viewBox="0 0 36 36" fill="none"><defs><linearGradient id="linear_0" x1="50%" y1="4.6433580729168416%" x2="51%" y2="100%" gradientUnits="objectBoundingBox"><stop offset="0" stop-color="#A7F17C" stop-opacity="1" /><stop offset="1" stop-color="#00E270" stop-opacity="1" /></linearGradient><filter id="filter_2" x="-2.909090909090909" y="-2.909090909090909" width="41.79759476152284" height="41.79759476152284" filterUnits="userSpaceOnUse" color-interpolation-filters="sRGB"><feFlood flood-opacity="0" result="BackgroundImageFix"/>
          <feColorMatrix in="SourceAlpha" type="matrix" values="0 0 0 0 0 0 0 0 0 0 0 0 0 0 0 0 0 0 127 0"/>
          <feOffset dx="0" dy="2"/>
          <feGaussianBlur stdDeviation="2"/>
          <feColorMatrix type="matrix" values="0 0 0 0 0 0 0 0 0 0.8862745098039215 0 0 0 0 0.45098039215686275 0 0 0 0.55 0"/>
          <feBlend mode="normal" in2="BackgroundImageFix" result="effect1_Shadow"/>
          <feBlend mode="normal" in="SourceGraphic" in2="effect1_Shadow" result="shape"/></filter><path id="path_0"
        transform="translate(0.24404666961713856 0.8057011295417945) rotate(0 6.43247182323384 9.244874665328638)"
        d="M11.76672,2.60677c0,0.22405 -0.08901,0.43893 -0.24744,0.59736c-0.15843,0.15843 -0.37331,0.24744 -0.59736,0.24744h-8.97889c-0.22405,0 -0.43893,-0.08901 -0.59736,-0.24744c-0.15843,-0.15843 -0.24744,-0.37331 -0.24744,-0.59736v-1.76197c0,-0.22405 0.08901,-0.43893 0.24744,-0.59736c0.15843,-0.15843 0.37331,-0.24744 0.59736,-0.24744l8.97889,0c0.22405,0 0.43893,0.08901 0.59736,0.24744c0.15843,0.15843 0.24744,0.37331 0.24744,0.59736zM2.0396,5.79937v-1.45436h8.78573v1.41122l1.74515,1.49843c0.18692,0.16049 0.29446,0.39458 0.29446,0.64095l0,9.74934c0,0.22405 -0.08901,0.43893 -0.24744,0.59736c-0.15843,0.15843 -0.37331,0.24744 -0.59736,0.24744h-11.17534c-0.22405,0 -0.43893,-0.08901 -0.59736,-0.24744c-0.15843,-0.15843 -0.24744,-0.37331 -0.24744,-0.59736l0,-9.74303c0,-0.25 0.11073,-0.48716 0.30239,-0.64767zM4.30259,12.75542c-0.01693,0.08286 0.00427,0.16894 0.05776,0.23445c0.05348,0.06551 0.13357,0.10352 0.21814,0.10352h1.00565c0.15552,0 0.2816,0.12608 0.2816,0.2816v1.65971c0,0.12595 0.08364,0.23659 0.20482,0.27093c0.12118,0.03434 0.25043,-0.01596 0.31651,-0.12319l2.42407,-3.93331c0.05354,-0.08688 0.05589,-0.19593 0.00614,-0.28503c-0.04975,-0.0891 -0.14382,-0.14432 -0.24587,-0.14432h-0.67111c-0.09384,0 -0.18151,-0.04674 -0.23381,-0.12465c-0.0523,-0.07791 -0.06236,-0.17675 -0.02682,-0.2636l0.60616,-1.48135c0.03554,-0.08685 0.02548,-0.18569 -0.02682,-0.2636c-0.0523,-0.07791 -0.13997,-0.12465 -0.23381,-0.12465h-2.59588c-0.13379,0 -0.24911,0.09414 -0.2759,0.22522z" /></defs><g opacity="1" transform="translate(0 0)  rotate(0 18 18)"><g id="Oval" filter="url(#filter_2)"><path id="Oval" fill-rule="evenodd" fill="url(#linear_0)" transform="translate(1.0909090909090908 1.0909090909090908)  rotate(0 16.89879738076142 16.89879738076142)" opacity="1" d="M33.79759,16.8988C33.79759,7.565930000000002 26.231659999999998,0 16.898789999999998,0C7.565919999999998,0 -0.000010000000003174137,7.56593 -0.000010000000003174137,16.8988C-0.000010000000003174137,26.23167 7.565919999999997,33.7976 16.898789999999998,33.7976C26.231659999999998,33.7976 33.79759,26.23167 33.79759,16.8988z " /></g><g opacity="1" transform="translate(11.19616696827518 7.783764120555257)  rotate(0 7.09090909090909 9.818181818181817)"><mask id="mask-0" fill="white"><use xlink:href="#path_0"></use></mask><g mask="url(#mask-0)"><path id="Combined Shape" fill-rule="evenodd" style="fill:#FFFFFF" transform="translate(0.24404666961713856 0.8057011295417945)  rotate(0 6.43247182323384 9.244874665328638)" opacity="1" d="M11.76672,2.60677c0,0.22405 -0.08901,0.43893 -0.24744,0.59736c-0.15843,0.15843 -0.37331,0.24744 -0.59736,0.24744h-8.97889c-0.22405,0 -0.43893,-0.08901 -0.59736,-0.24744c-0.15843,-0.15843 -0.24744,-0.37331 -0.24744,-0.59736v-1.76197c0,-0.22405 0.08901,-0.43893 0.24744,-0.59736c0.15843,-0.15843 0.37331,-0.24744 0.59736,-0.24744l8.97889,0c0.22405,0 0.43893,0.08901 0.59736,0.24744c0.15843,0.15843 0.24744,0.37331 0.24744,0.59736z M2.0396,5.79937v-1.45436h8.78573v1.41122l1.74515,1.49843c0.18692,0.16049 0.29446,0.39458 0.29446,0.64095l0,9.74934c0,0.22405 -0.08901,0.43893 -0.24744,0.59736c-0.15843,0.15843 -0.37331,0.24744 -0.59736,0.24744h-11.17534c-0.22405,0 -0.43893,-0.08901 -0.59736,-0.24744c-0.15843,-0.15843 -0.24744,-0.37331 -0.24744,-0.59736l0,-9.74303c0,-0.25 0.11073,-0.48716 0.30239,-0.64767z M4.30259,12.75542c-0.01693,0.08286 0.00427,0.16894 0.05776,0.23445c0.05348,0.06551 0.13357,0.10352 0.21814,0.10352h1.00565c0.15552,0 0.2816,0.12608 0.2816,0.2816v1.65971c0,0.12595 0.08364,0.23659 0.20482,0.27093c0.12118,0.03434 0.25043,-0.01596 0.31651,-0.12319l2.42407,-3.93331c0.05354,-0.08688 0.05589,-0.19593 0.00614,-0.28503c-0.04975,-0.0891 -0.14382,-0.14432 -0.24587,-0.14432h-0.67111c-0.09384,0 -0.18151,-0.04674 -0.23381,-0.12465c-0.0523,-0.07791 -0.06236,-0.17675 -0.02682,-0.2636l0.60616,-1.48135c0.03554,-0.08685 0.02548,-0.18569 -0.02682,-0.2636c-0.0523,-0.07791 -0.13997,-0.12465 -0.23381,-0.12465h-2.59588c-0.13379,0 -0.24911,0.09414 -0.2759,0.22522z " /></g></g></g></svg>