<svg xmlns="http://www.w3.org/2000/svg" xmlns:xlink="http://www.w3.org/1999/xlink" width="145.9263766118804" height="33" viewBox="0 0 145.9263766118804 33" fill="none"><defs><linearGradient id="linear_0" x1="50%" y1="4.6433580729168416%" x2="51%" y2="100%" gradientUnits="objectBoundingBox"><stop offset="0" stop-color="#FFB277" stop-opacity="1" /><stop offset="1" stop-color="#6EFFFA" stop-opacity="1" /></linearGradient><filter id="filter_2" x="-3" y="-3" width="38.98112853139594" height="38.98112853139594" filterUnits="userSpaceOnUse" color-interpolation-filters="sRGB"><feFlood flood-opacity="0" result="BackgroundImageFix"/>
          <feColorMatrix in="SourceAlpha" type="matrix" values="0 0 0 0 0 0 0 0 0 0 0 0 0 0 0 0 0 0 127 0"/>
          <feOffset dx="0" dy="2"/>
          <feGaussianBlur stdDeviation="2"/>
          <feColorMatrix type="matrix" values="0 0 0 0 0.9686274509803922 0 0 0 0 0.42745098039215684 0 0 0 0 0.27450980392156865 0 0 0 0.38 0"/>
          <feBlend mode="normal" in2="BackgroundImageFix" result="effect1_Shadow"/>
          <feBlend mode="normal" in="SourceGraphic" in2="effect1_Shadow" result="shape"/></filter><rect id="path_0" x="0" y="0" width="19" height="19" /></defs><g opacity="1" transform="translate(0 0)  rotate(0 16.5 16.5)"><g id="Oval" filter="url(#filter_2)"><path id="Oval" fill-rule="evenodd" fill="url(#linear_0)" transform="translate(1 1)  rotate(0 15.49056426569797 15.49056426569797)" opacity="1" d="M30.98113,15.49056C30.98113,6.93543 24.04569,0 15.49057,0C6.93544,0 0.000009999999999621423,6.93544 0.000009999999999621423,15.49056C0.000009999999999621423,24.04569 6.9354499999999994,30.98112 15.49057,30.98112C24.0457,30.98112 30.98113,24.04568 30.98113,15.49056z " /></g><g opacity="1" transform="translate(127 17)  rotate(0 9.5 8)"><path id="Combined Shape" fill-rule="evenodd" style="fill:#FFFFFF" transform="translate(0.2285480946797583 0.2238850358635318)  rotate(0 9.348914258600145 7.46182308031635)" opacity="1" d="M6.59489,0.16736c0.10716,-0.10716 0.2525,-0.16736 0.40405,-0.16736l4.28558,0c0.15155,0 0.29689,0.0602 0.40405,0.16736c0.10716,0.10716 0.16736,0.2525 0.16736,0.40405c0,0.15155 -0.0602,0.29689 -0.16736,0.40405c-0.10716,0.10716 -0.2525,0.16736 -0.40405,0.16736h-4.28558c-0.15155,0 -0.29689,-0.0602 -0.40405,-0.16736c-0.10716,-0.10716 -0.16736,-0.2525 -0.16736,-0.40405c0,-0.15155 0.0602,-0.29689 0.16736,-0.40405z M1.80947,3.7812c0,-0.53043 0.21071,-1.03914 0.58579,-1.41421c0.37507,-0.37507 0.88378,-0.58579 1.41421,-0.58579l11.07889,0c0.53043,0 1.03914,0.21071 1.41421,0.58579c0.37507,0.37507 0.58579,0.88378 0.58579,1.41421l0,1.9673h1.23806c0.15155,0 0.29689,0.0602 0.40405,0.16736c0.10716,0.10716 0.16736,0.2525 0.16736,0.40405c0,0.15155 -0.0602,0.29689 -0.16736,0.40405c-0.10716,0.10716 -0.2525,0.16736 -0.40405,0.16736l-1.23806,0v6.03233c0,1.10457 -0.89543,2 -2,2h-11.07889c-0.53043,0 -1.03914,-0.21071 -1.41421,-0.58579c-0.37507,-0.37507 -0.58579,-0.88378 -0.58579,-1.41421v-6.03233h-1.23806c-0.15155,0 -0.29689,-0.0602 -0.40405,-0.16736c-0.10716,-0.10716 -0.16736,-0.2525 -0.16736,-0.40405c0,-0.15155 0.0602,-0.29689 0.16736,-0.40405c0.10716,-0.10716 0.2525,-0.16736 0.40405,-0.16736l1.23806,0z M7.06882,9.36379c0,0.26522 0.10536,0.51957 0.29289,0.70711c0.18754,0.18754 0.44189,0.29289 0.70711,0.29289h2.56019c0.55228,0 1,-0.44772 1,-1v-2.04388c0,-0.14968 -0.03356,-0.29589 -0.0965,-0.42859l-4.36719,0c-0.06295,0.1327 -0.0965,0.27891 -0.0965,0.42859z " /></g><g opacity="1" transform="translate(7 6)  rotate(0 9.5 9.5)"><mask id="bg-mask" fill="white"><use xlink:href="#path_0"></use></mask><g mask="url(#bg-mask)" ><path id="分组 1" fill-rule="evenodd" style="fill:#FFFFFF" transform="translate(0.7031553262872227 1.020507812499999)  rotate(0 8.714744460824495 8.512890625)" opacity="1" d="M17.24 7.64C17.41 7.15 17.46 6.63 17.41 6.1C17.33 5.33 16.99 4.58 16.45 4C15.9 3.42 15.18 3.04 14.41 2.91C13.69 2.79 12.97 2.88 12.32 3.17C12.09 1.37 10.55 0 8.72 0C6.88 0 5.34 1.37 5.11 3.17C4.62 2.95 4.08 2.84 3.54 2.86C3.05 2.87 2.58 2.98 2.13 3.19C1.7 3.39 1.31 3.67 0.99 4.03C0.66 4.38 0.4 4.79 0.23 5.23C0.06 5.7 -0.02 6.18 0 6.67C0.05 7.6 0.45 8.46 1.13 9.1C1.76 9.69 2.59 10.04 3.46 10.08L3.94 16.16C3.97 16.65 4.38 17.03 4.87 17.03L12.43 17.03C12.91 17.03 13.32 16.65 13.36 16.16L13.83 10.11C14.85 10.1 15.82 9.66 16.5 8.91C16.83 8.54 17.08 8.11 17.24 7.64Z M8.71103 0.371094C6.98103 0.371094 5.55102 1.73109 5.46103 3.46109C5.45103 3.52109 5.42103 3.58109 5.36102 3.61109C5.31103 3.64109 5.24102 3.64109 5.18103 3.62109C4.71103 3.36109 4.18103 3.23109 3.64103 3.23109C3.61103 3.23109 3.58103 3.23109 3.55103 3.23109C2.68103 3.25109 1.87102 3.62109 1.26102 4.28109C0.641025 4.94109 0.331025 5.78109 0.371025 6.65109C0.461025 8.37109 1.89102 9.71109 3.64103 9.71109C3.73102 9.71109 3.81103 9.79109 3.82103 9.88109L4.31103 16.1311C4.33103 16.4311 4.58103 16.6511 4.87103 16.6511L12.431 16.6511C12.721 16.6511 12.971 16.4311 12.991 16.1311L13.481 9.88109C13.481 9.78109 13.571 9.70109 13.671 9.70109C13.721 9.71109 13.761 9.72109 13.781 9.73109C13.791 9.73109 13.801 9.73109 13.801 9.73109C14.721 9.73109 15.611 9.34109 16.221 8.66109C16.851 7.97109 17.141 7.07109 17.041 6.14109C16.901 4.71109 15.761 3.51109 14.351 3.27109C13.611 3.15109 12.891 3.27109 12.251 3.62109C12.191 3.64109 12.121 3.64109 12.071 3.61109C12.011 3.58109 11.981 3.52109 11.971 3.46109C11.881 1.73109 10.451 0.371094 8.71103 0.371094Z " /><path id="路径 3" fill-rule="evenodd" style="fill:#FFFFFF" transform="translate(3.5987682546784874 3.978125000000001)  rotate(0 5.8189096627843115 5.6814453125)" opacity="1" d="M2.29,1.95C0.99,1.98 -0.06,3.12 0,4.42C0.06,5.66 1.09,6.63 2.36,6.63L2.69,10.89C2.71,11.16 2.93,11.36 3.19,11.36L8.35,11.36C8.62,11.36 8.84,11.16 8.86,10.89L9.19,6.62C9.22,6.62 9.25,6.64 9.28,6.64C10.66,6.64 11.77,5.46 11.63,4.05C11.52,3.01 10.71,2.15 9.68,1.98C9.13,1.89 8.61,1.99 8.17,2.23C8.1,0.99 7.08,0 5.82,0C4.56,0 3.54,0.99 3.47,2.23C3.12,2.04 2.72,1.94 2.29,1.95Z " /><path id="路径 4" fill-rule="evenodd" style="fill:#FFFFFF" transform="translate(4.354785156250001 15.136914062499999)  rotate(0 4.94482421875 0.185546875)" opacity="1" d="M9.89,0.19C9.89,0.08 9.81,0 9.7,0L0.19,0C0.08,0 0,0.08 0,0.19C0,0.29 0.08,0.37 0.19,0.37L9.7,0.37C9.81,0.37 9.89,0.29 9.89,0.19Z " /></g></g></g></svg>