<svg xmlns="http://www.w3.org/2000/svg" xmlns:xlink="http://www.w3.org/1999/xlink" width="39.311382200947264" height="39.311382200947264" viewBox="0 0 39.311382200947264 39.311382200947264" fill="none"><g opacity="1" transform="translate(1.1368683772161603e-13 0)  rotate(0 19.65569110047363 19.65569110047363)"><path id="Oval Copy 4" fill-rule="evenodd" style="fill:#999999" transform="translate(0 0)  rotate(0 19.65569110047363 19.65569110047363)" opacity="0.7" d="M39.31138,19.65569C39.31138,8.80024 30.51113,0 19.65569,0C8.80024,0 0,8.80025 0,19.65569C0,30.511139999999997 8.80025,39.31138 19.65569,39.31138C30.511139999999997,39.31138 39.31138,30.51113 39.31138,19.65569z " /><path  id="Mask" style="stroke:#FFFFFF; stroke-width:2; stroke-opacity:1; stroke-dasharray:0 0" transform="translate(9.655691100473632 11.863735511730795)  rotate(0 10 9.175)" d="M11.45,17.03999C16.6,12.360009999999999 20,9.279959999999999 20,5.50004C20,2.4199900000000003 17.58,-0.000009999999999621423 14.5,-0.000009999999999621423C12.76,-0.000009999999999621423 11.09,0.8099600000000003 10,2.0900600000000003C8.91,0.8099600000000002 7.24,4.440892098500626e-16 5.5,4.440892098500626e-16C2.42,4.440892098500626e-16 0,2.4200000000000004 0,5.50005C0,9.27997 3.4,12.360009999999999 8.55,17.03009L9.396433703594203,17.80058984417108C9.738887344954199,18.1123218512772 10.262001304420156,18.1133017594369 10.6056204243897,17.802854918373107z " /></g></svg>