<svg xmlns="http://www.w3.org/2000/svg" xmlns:xlink="http://www.w3.org/1999/xlink" width="17" height="17" viewBox="0 0 17 17" fill="none"><defs><filter id="filter_2" x="-9.926624655536216" y="-9.922125448049883" width="36.30652824180163" height="36.30652824180163" filterUnits="userSpaceOnUse" color-interpolation-filters="sRGB"><feFlood flood-opacity="0" result="BackgroundImageFix"/>
          <feColorMatrix in="SourceAlpha" type="matrix" values="0 0 0 0 0 0 0 0 0 0 0 0 0 0 0 0 0 0 127 0"/>
          <feOffset dx="0" dy="2"/>
          <feGaussianBlur stdDeviation="5"/>
          <feColorMatrix type="matrix" values="0 0 0 0 0.4588235294117647 0 0 0 0 0.6039215686274509 0 0 0 0 0.6784313725490196 0 0 0 0.4 0"/>
          <feBlend mode="normal" in2="BackgroundImageFix" result="effect1_Shadow"/>
          <feBlend mode="normal" in="SourceGraphic" in2="effect1_Shadow" result="shape"/></filter></defs><g opacity="1" transform="translate(0 0)  rotate(0 8.5 8.5)"><g id="Path" filter="url(#filter_2)"><path id="Path" fill-rule="evenodd" style="fill:#FFFFFF" transform="translate(0.07337534446378413 0.07787455195011717)  rotate(0 8.153264120900815 8.153264120900815)" opacity="1" d="M16.30653,8.15326C16.30653,3.6503799999999993 12.656149999999998,0 8.15327,0C3.650389999999999,0 0.000009999999999621423,3.65038 0.000009999999999621423,8.15326C0.000009999999999621423,12.65614 3.65039,16.30652 8.15327,16.30652C12.65615,16.30652 16.30653,12.656139999999999 16.30653,8.15326z " /></g><path id="Path" fill-rule="evenodd" style="fill:#000000" transform="translate(3.684391332180212 7.731138672851557)  rotate(0 4.54224813318433 0.5)" opacity="1" d="M8.58449,1C8.860660000000001,1 9.0845,0.77614 9.0845,0.5C9.0845,0.22386 8.860660000000001,0 8.58449,0L0.500020000000001,0C0.223850000000001,0 0.000010000000001064713,0.22386 0.000010000000001064713,0.5C0.000010000000001064713,0.77614 0.22385000000000108,1 0.500020000000001,1z " /></g></svg>