<svg xmlns="http://www.w3.org/2000/svg" xmlns:xlink="http://www.w3.org/1999/xlink" width="32" height="33" viewBox="0 0 32 33" fill="none"><defs><filter id="filter_10" x="0.8499999999999943" y="2.592796770233958" width="24.30000000000001" height="25.3694409178128" filterUnits="userSpaceOnUse" color-interpolation-filters="sRGB"></filter></defs><g opacity="1" transform="translate(2.7755575615628914e-17 0)  rotate(0 16 16.5)"><g opacity="1" transform="translate(0 0)  rotate(0 16 16.5)"><g opacity="1" transform="translate(2.396469034186566 2.89268756119327)  rotate(0 13 14)"><path  id="Path" style="stroke:#74A1B9; stroke-width:1.301785714285714; stroke-opacity:1; stroke-dasharray:0 0" transform="translate(0.8499999999999943 2.592796770233958)  rotate(0 12.150000000000006 12.6847204589064)" d="M17.71349,0L22.56426,0C23.5229,0 24.30001,0.77707 24.30001,1.73578L24.30001,23.633670000000002C24.30001,24.592380000000002 23.5229,25.36945 22.56426,25.36945L1.7357600000000026,25.36945C0.7771200000000026,25.36945 0.000010000000002730047,24.592380000000002 0.000010000000002730047,23.633670000000002L0.000010000000002730047,1.7357800000000019C0.000010000000002730047,0.7770700000000019 0.7771200000000027,1.7763568394002505e-15 1.7357600000000026,1.7763568394002505e-15L6.538900000000003,1.7763568394002505e-15 " /><path  id="Rectangle" style="stroke:#74A1B9; stroke-width:1.301785714285714; stroke-opacity:1; stroke-dasharray:0 0" transform="translate(6.925 0.1908091166187669)  rotate(0 6.075 2.959768107078161)" d="M1.0628184721171676e-16,4.183825714285714C2.220446049250313e-16,5.142434244349163 0.7771057556508376,5.91954 1.735714285714286,5.91954L10.414285714285715,5.91954C11.372894244349164,5.91954 12.15,5.142434244349163 12.15,4.183825714285714L12.15,1.7357142857142862C12.150000006859601,1.2753742613569499 11.967130640518276,0.8338885383859164 11.641621074205371,0.5083789623720714C11.316111507892469,0.18286938635822625 10.874625790371367,6.859601109354685e-9 10.414285740149873,0L1.7357142857142862,0C1.275374235492792,0 0.8338885152467242,0.18286937291997507 0.5083789440833497,0.5083789440833497C0.18286937291997507,0.8338885152467242 -2.220446049250313e-16,1.2753742354927915 -2.220446049250313e-16,1.7357142857142858z " /><g opacity="1" transform="translate(5.189285714285688 9.636445800569163)  rotate(0 8 5.5)"><g opacity="1" transform="translate(0 0)  rotate(0 8 1.5)"><path  id="Line 5" style="stroke:#74A1B9; stroke-width:1.301785714285714; stroke-opacity:1; stroke-dasharray:0 0" transform="translate(3.666196200093899 0.833818906201777)  rotate(0 6.075 0.43392857142857144)" d="M0.43388,0.43393L11.73362,0.43393 " /><path id="Oval Copy 8" fill-rule="evenodd" style="fill:#74A1B9" transform="translate(0.02709095769389803 0.5746528709725007)  rotate(0 0.8461418200879305 0.8461418200879305)" opacity="1" d="M1.69228,0.84614C1.69228,0.37883 1.31345,0 0.84614,0C0.37883,0 0,0.37883 0,0.84614C0,1.31345 0.37883,1.69228 0.84614,1.69228C1.31345,1.69228 1.69228,1.31345 1.69228,0.84614z " /></g><g opacity="1" transform="translate(0 4.339285714285714)  rotate(0 6.5 1.5)"><path  id="Line 5 Copy" style="stroke:#74A1B9; stroke-width:1.301785714285714; stroke-opacity:1; stroke-dasharray:0 0" transform="translate(4.100124771522329 0.7670652553793819)  rotate(0 4.095694372328956 0.43392857142857144)" d="M0,0.43393L8.19139,0.43393 " /><path id="Oval Copy 9" fill-rule="evenodd" style="fill:#74A1B9" transform="translate(0.02709095769335363 0.3548520067199247)  rotate(0 0.8461418200879305 0.8461418200879305)" opacity="1" d="M1.69228,0.84614C1.69228,0.37883 1.31345,0 0.84614,0C0.37883,0 0,0.37883 0,0.84614C0,1.31345 0.37883,1.69228 0.84614,1.69228C1.31345,1.69228 1.69228,1.31345 1.69228,0.84614z " /></g><g opacity="1" transform="translate(0 8.678571428571429)  rotate(0 4 1)"><path  id="Line 5 Copy 2" style="stroke:#74A1B9; stroke-width:1.301785714285714; stroke-opacity:1; stroke-dasharray:0 0" transform="translate(4.14229440408487 0.7003116045568882)  rotate(0 1.834209940815085 0.43392857142857144)" d="M0,0.43393L3.66842,0.43393 " /><path id="Oval Copy 10" fill-rule="evenodd" style="fill:#74A1B9" transform="translate(0.02709095769335363 0.2880983558975297)  rotate(0 0.8461418200879305 0.8461418200879305)" opacity="1" d="M1.69228,0.84614C1.69228,0.37883 1.31345,0 0.84614,0C0.37883,0 0,0.37883 0,0.84614C0,1.31345 0.37883,1.69228 0.84614,1.69228C1.31345,1.69228 1.69228,1.31345 1.69228,0.84614z " /></g></g></g></g></g></svg>