<svg xmlns="http://www.w3.org/2000/svg" xmlns:xlink="http://www.w3.org/1999/xlink" width="17" height="15.454332086145769" viewBox="0 0 17 15.454332086145769" fill="none"><defs><filter id="filter_2" x="-9.688368897841954" y="-9.783140022837472" width="36.631593128457055" height="35.119421372284435" filterUnits="userSpaceOnUse" color-interpolation-filters="sRGB"><feFlood flood-opacity="0" result="BackgroundImageFix"/>
          <feColorMatrix in="SourceAlpha" type="matrix" values="0 0 0 0 0 0 0 0 0 0 0 0 0 0 0 0 0 0 127 0"/>
          <feOffset dx="0" dy="2"/>
          <feGaussianBlur stdDeviation="5"/>
          <feColorMatrix type="matrix" values="0 0 0 0 0.4588235294117647 0 0 0 0 0.6039215686274509 0 0 0 0 0.6784313725490196 0 0 0 0.4 0"/>
          <feBlend mode="normal" in2="BackgroundImageFix" result="effect1_Shadow"/>
          <feBlend mode="normal" in="SourceGraphic" in2="effect1_Shadow" result="shape"/></filter></defs><g opacity="1" transform="translate(0 0)  rotate(0 8.5 7.727166043072884)"><g id="Oval" filter="url(#filter_2)"><path id="Oval" fill-rule="evenodd" style="fill:#FFFFFF" transform="translate(0.31163110215804574 0.2168599771625278)  rotate(0 8.31579656422853 7.559710686142217)" opacity="1" d="M16.63,7.56C16.63,3.38 12.91,0 8.32,0C3.72,0 0,3.38 0,7.56C0,11.73 3.72,15.12 8.32,15.12C12.91,15.12 16.63,11.73 16.63,7.56Z " /></g><g opacity="1" transform="translate(2.896673040208952 2.9470918863841917)  rotate(0 5.3125 4.829478776920553)"><path id="Path" fill-rule="evenodd" style="fill:#000000" transform="translate(0.7068178194204506 4.4881721772090915)  rotate(0 4.826138641508351 0.48294787769205527)" opacity="1" d="M9.12,0.97C9.41,0.97 9.65,0.75 9.65,0.48C9.65,0.22 9.41,0 9.12,0L0.53,0C0.24,0 0,0.22 0,0.48C0,0.75 0.24,0.97 0.53,0.97L9.12,0.97Z " /><path id="Path" fill-rule="evenodd" style="fill:#000000" transform="translate(0.7068178194204506 4.4881721772090915)  rotate(90 4.826138641508351 0.48294787769205527)" opacity="1" d="M9.12,0.97C9.41,0.97 9.65,0.75 9.65,0.48C9.65,0.22 9.41,0 9.12,0L0.53,0C0.24,0 0,0.22 0,0.48C0,0.75 0.24,0.97 0.53,0.97L9.12,0.97Z " /></g></g></svg>