<svg xmlns="http://www.w3.org/2000/svg" xmlns:xlink="http://www.w3.org/1999/xlink" width="31" height="23" viewBox="0 0 31 23" fill="none"><g opacity="1" transform="translate(0 0)  rotate(0 15.5 11.5)"><path  id="Path" style="stroke:#74A1B9; stroke-width:1.659102181810214; stroke-opacity:1; stroke-dasharray:0 0" transform="translate(15.7119544280225 14.29800157028877)  rotate(0 4.298954855312241 3.8082910736275024)" d="M8.59791,7.61658L2.865940000000001,7.61658C1.2831500000000011,7.61658 8.881784197001252e-16,6.3175 8.881784197001252e-16,4.71504L8.881784197001252e-16,-0.000009999999999621423 " /><path id="Path" fill-rule="evenodd" style="fill:#74A1B9" transform="translate(19.09584632534859 8.028034659915534)  rotate(0 5.83080761943696 7.35805007426655)" opacity="1" d="M4.79047,0L4.12517,0C3.69392,0 3.3444199999999995,0.37143 3.3444199999999995,0.82955C3.3444199999999995,1.28766 3.6939199999999994,1.6591 4.12517,1.6591L4.79047,1.6591C7.72138,1.6591 10.10012,4.208959999999999 10.10012,7.35806C10.10012,10.507159999999999 7.72138,13.05702 4.79047,13.05702L0.7807399999999998,13.05702C0.34948999999999975,13.05702 -0.000010000000000287557,13.42845 -0.000010000000000287557,13.886569999999999C-0.000010000000000287557,14.344679999999999 0.3494899999999997,14.716119999999998 0.7807399999999998,14.716119999999998L4.79047,14.716119999999998C8.58691,14.716119999999998 11.66161,11.42016 11.66161,7.358069999999998C11.66161,3.2959799999999975 8.58691,0.00001999999999746649 4.79047,0.00001999999999746649z " /><path  id="Triangle" style="stroke:#74A1B9; stroke-width:1.659102181810214; stroke-opacity:1; stroke-dasharray:0 0" transform="translate(11.54730856279149 8.087146011576191)  rotate(0 4.1646458652363805 3.3481940899616136)" d="M0.5255883428988042,5.851288256871153C0.4195302369801892,6.0218207494497085 0.41425183808369326,6.2364452585079695 0.5117987630103709,6.411985140852263C0.6093456879370487,6.587525023196556 0.794386111112623,6.69639 0.9952085522293944,6.69639L7.334080185744357,6.69639C7.534902733477393,6.69639 7.719943237397403,6.587524908635191 7.81749011959784,6.411984880576171C7.915037001798279,6.236444852517152 7.909758426426151,6.021820220075113 7.803700080566259,5.851287751168306L4.634260458639529,0.7551082907397162C4.533328152846317,0.5928180422937221 4.355756605213286,0.49414231546439336 4.164640266054683,0.49414241836468076C3.973523926896079,0.49414252126496827 3.79595248552053,0.5928184393093225 3.6950203544870366,0.7551087964425625z " /><path id="Path" fill-rule="evenodd" style="fill:#74A1B9" transform="translate(7.526570008284921 0.03944381609744596)  rotate(0 8.233200928762136 4.40907096736191)" opacity="1" d="M8.2332,0C3.68452,0 0,3.94965 0,8.81814L1.56151,8.81814C1.56151,4.86267 4.55016,1.6591299999999993 8.2332,1.6591299999999993C11.91624,1.6591299999999993 14.90489,4.86267 14.90489,8.81814L16.4664,8.81814C16.4664,3.9496399999999996 12.781880000000001,0 8.2332,0z " /><path id="Path" fill-rule="evenodd" style="fill:#74A1B9" transform="translate(0.26334391716102346 8.028034659915534)  rotate(0 5.83080761943696 7.358050074266555)" opacity="1" d="M8.82749,0.82955C8.82749,0.37144 8.477989999999998,0 8.04674,0L6.87113,0C3.07469,0 -0.000009999999999621423,3.29596 -0.000009999999999621423,7.35805C-0.000009999999999621423,11.42014 3.0746900000000004,14.7161 6.87113,14.7161L10.88086,14.7161C11.31211,14.7161 11.66161,14.34467 11.66161,13.886550000000002C11.66161,13.428440000000002 11.312109999999999,13.057000000000002 10.88086,13.057000000000002L6.87113,13.057000000000002C3.94022,13.057000000000002 1.5614799999999995,10.507140000000003 1.5614799999999995,7.358040000000003C1.5614799999999995,4.208940000000003 3.9402199999999996,1.659080000000003 6.87113,1.659080000000003L8.04674,1.659080000000003C8.47799,1.659080000000003 8.82749,1.287650000000003 8.82749,0.829530000000003z " /></g></svg>