<svg xmlns="http://www.w3.org/2000/svg" xmlns:xlink="http://www.w3.org/1999/xlink" width="36" height="36" viewBox="0 0 36 36" fill="none"><defs><path id="path_0"
        transform="translate(9.49825920905244 9.460757343255139) rotate(0 8.50174079094756 8.539242656744857)"
        d="M10.82645,6.06886c-0.03384,0.05167 -0.07618,0.14295 -0.09947,0.18641c-0.07175,0.13416 -0.14436,0.27407 -0.26321,0.44662c-0.51146,0.74161 -1.14994,1.26417 -1.77448,1.33363c-0.81344,0.09054 -1.7063,-0.55241 -2.64557,-2.24451c-0.22649,-0.408 -0.81991,-0.38799 -1.01851,0.03444c-0.03078,0.06552 -0.09709,0.19198 -0.19639,0.35854c-0.16731,0.28063 -0.36302,0.56127 -0.58356,0.82099c-1.11016,1.30715 -2.27779,1.56728 -3.69979,0.23053c-0.9391,-1.46116 -0.67793,-3.56387 0.87976,-6.35514c0.30335,-0.54356 0.87704,-0.88037 1.49937,-0.88037h11.04325c0.61536,0 1.18379,0.32935 1.48968,0.86331c2.22286,3.87838 2.02239,6.17062 -0.43223,7.22731c-1.1457,0.44588 -2.80745,-0.51248 -3.10943,-1.93657c-0.14266,-0.67231 -0.80188,-0.69347 -1.08941,-0.08521zM1.06358,8.33055c2.02563,1.11549 3.52262,-0.69328 4.15202,-1.68316c0.09869,-0.16668 0.16117,-0.27094 0.18759,-0.31289c0.09216,-0.16371 0.1401,-0.26566 0.1401,-0.26566c0.04883,0.08796 0.09765,0.17329 0.14648,0.25597c0.03414,0.07255 0.09958,0.17891 0.19605,0.31906c2.16023,3.3662 4.17621,1.68029 5.05271,0.37752c0.01187,-0.01751 0.02894,-0.03787 0.0748,-0.11428c0.19946,-0.35275 0.31374,-0.56425 0.34253,-0.63427c0.05016,0.2497 0.13891,0.49698 0.26639,0.74205c0.70376,1.35694 2.38908,2.08456 3.62933,1.60146c0.23553,-0.1014 0.45324,-0.21281 0.65285,-0.33425v7.6516c0,0.63228 -0.51245,1.14478 -1.14467,1.14478h-12.55148c-0.63222,0 -1.14467,-0.5125 -1.14467,-1.14478zM9.36007,11.81471v2.12377c0,0.63225 0.51252,1.14477 1.14476,1.14477h1.02047c0.63224,0 1.14476,-0.51252 1.14476,-1.14477v-2.12377c0,-0.63225 -0.51252,-1.14477 -1.14476,-1.14477h-1.02047c-0.63224,0 -1.14476,0.51252 -1.14476,1.14477z" /><linearGradient id="linear_0" x1="50%" y1="4.6433580729168416%" x2="51%" y2="100%" gradientUnits="objectBoundingBox"><stop offset="0" stop-color="#B381FC" stop-opacity="1" /><stop offset="1" stop-color="#946DE6" stop-opacity="1" /></linearGradient><filter id="filter_6" x="-3.2966629909113347" y="-2.9713349109573013" width="41.79759476152284" height="41.79759476152284" filterUnits="userSpaceOnUse" color-interpolation-filters="sRGB"><feFlood flood-opacity="0" result="BackgroundImageFix"/>
          <feColorMatrix in="SourceAlpha" type="matrix" values="0 0 0 0 0 0 0 0 0 0 0 0 0 0 0 0 0 0 127 0"/>
          <feOffset dx="0" dy="2"/>
          <feGaussianBlur stdDeviation="2"/>
          <feColorMatrix type="matrix" values="0 0 0 0 0.6745098039215687 0 0 0 0 0.48627450980392156 0 0 0 0 0.9647058823529412 0 0 0 0.43 0"/>
          <feBlend mode="normal" in2="BackgroundImageFix" result="effect1_Shadow"/>
          <feBlend mode="normal" in="SourceGraphic" in2="effect1_Shadow" result="shape"/></filter><filter id="filter_8" x="9.49825920905244" y="9.460757343255139" width="17.003481581895116" height="17.078485313489715" filterUnits="userSpaceOnUse" color-interpolation-filters="sRGB"></filter></defs><g opacity="1" transform="translate(0 0)  rotate(0 18 18)"><g opacity="1" transform="translate(0 0)  rotate(0 18 18)"><g opacity="1" transform="translate(0.883564171901195 0.23399643527773142)  rotate(0 17.454545454545453 17.454545454545453)"><g id="Oval Copy 5" filter="url(#filter_6)"><path id="Oval Copy 5" fill-rule="evenodd" fill="url(#linear_0)" transform="translate(0.7033370090886654 1.0286650890426987)  rotate(0 16.89879738076142 16.89879738076142)" opacity="1" d="M33.79759,16.8988C33.79759,7.565930000000002 26.231659999999998,0 16.898789999999998,0C7.565919999999998,0 -0.000010000000003174137,7.56593 -0.000010000000003174137,16.8988C-0.000010000000003174137,26.23167 7.565919999999997,33.7976 16.898789999999998,33.7976C26.231659999999998,33.7976 33.79759,26.23167 33.79759,16.8988z " /></g></g></g><mask id="mask-0" fill="white"><use xlink:href="#path_0"></use></mask><g mask="url(#mask-0)"><path id="Shape" fill-rule="evenodd" style="fill:#FFFFFF" transform="translate(9.49825920905244 9.460757343255139)  rotate(0 8.50174079094756 8.539242656744857)" opacity="1" d="M10.82645,6.06886c-0.03384,0.05167 -0.07618,0.14295 -0.09947,0.18641c-0.07175,0.13416 -0.14436,0.27407 -0.26321,0.44662c-0.51146,0.74161 -1.14994,1.26417 -1.77448,1.33363c-0.81344,0.09054 -1.7063,-0.55241 -2.64557,-2.24451c-0.22649,-0.408 -0.81991,-0.38799 -1.01851,0.03444c-0.03078,0.06552 -0.09709,0.19198 -0.19639,0.35854c-0.16731,0.28063 -0.36302,0.56127 -0.58356,0.82099c-1.11016,1.30715 -2.27779,1.56728 -3.69979,0.23053c-0.9391,-1.46116 -0.67793,-3.56387 0.87976,-6.35514c0.30335,-0.54356 0.87704,-0.88037 1.49937,-0.88037h11.04325c0.61536,0 1.18379,0.32935 1.48968,0.86331c2.22286,3.87838 2.02239,6.17062 -0.43223,7.22731c-1.1457,0.44588 -2.80745,-0.51248 -3.10943,-1.93657c-0.14266,-0.67231 -0.80188,-0.69347 -1.08941,-0.08521z M1.06358,8.33055c2.02563,1.11549 3.52262,-0.69328 4.15202,-1.68316c0.09869,-0.16668 0.16117,-0.27094 0.18759,-0.31289c0.09216,-0.16371 0.1401,-0.26566 0.1401,-0.26566c0.04883,0.08796 0.09765,0.17329 0.14648,0.25597c0.03414,0.07255 0.09958,0.17891 0.19605,0.31906c2.16023,3.3662 4.17621,1.68029 5.05271,0.37752c0.01187,-0.01751 0.02894,-0.03787 0.0748,-0.11428c0.19946,-0.35275 0.31374,-0.56425 0.34253,-0.63427c0.05016,0.2497 0.13891,0.49698 0.26639,0.74205c0.70376,1.35694 2.38908,2.08456 3.62933,1.60146c0.23553,-0.1014 0.45324,-0.21281 0.65285,-0.33425v7.6516c0,0.63228 -0.51245,1.14478 -1.14467,1.14478h-12.55148c-0.63222,0 -1.14467,-0.5125 -1.14467,-1.14478z M9.36007,11.81471v2.12377c0,0.63225 0.51252,1.14477 1.14476,1.14477h1.02047c0.63224,0 1.14476,-0.51252 1.14476,-1.14477v-2.12377c0,-0.63225 -0.51252,-1.14477 -1.14476,-1.14477h-1.02047c-0.63224,0 -1.14476,0.51252 -1.14476,1.14477z " /></g></g></svg>