<svg xmlns="http://www.w3.org/2000/svg" xmlns:xlink="http://www.w3.org/1999/xlink" width="40" height="42" viewBox="0 0 40 42" fill="none"><g opacity="1" transform="translate(0 0)  rotate(0 20 21)"><g opacity="1" transform="translate(0 0.7889103513584814)  rotate(0 20 20.5)"><path id="Oval Copy 4" fill-rule="evenodd" style="fill:#999999" transform="translate(0.5888111608768476 0.877412186166115)  rotate(0 19.65569110047363 19.65569110047363)" opacity="0.7" d="M39.31138,19.65569C39.31138,8.80024 30.51113,0 19.65569,0C8.80024,0 0,8.80025 0,19.65569C0,30.511139999999997 8.80025,39.31138 19.65569,39.31138C30.511139999999997,39.31138 39.31138,30.51113 39.31138,19.65569z " /></g><g opacity="1" transform="translate(9 8.901395098533158)  rotate(0 12 12.5)"><g opacity="1" transform="translate(0 0.5)  rotate(0 12 12)"><g opacity="1" transform="translate(0 0)  rotate(0 12 12)"><g opacity="1" transform="translate(0.5329728370513749 0.1821707533758854)  rotate(0 11.5 11.5)"><g opacity="1" transform="translate(0.8587448452209845 0.657875201005254)  rotate(0 11 11)"><path id="Path" fill-rule="evenodd" style="fill:#FFFFFF" transform="translate(0.3127502521651202 3.191576806278476)  rotate(0 9.779163506230445 9.20594306133853)" opacity="1" d="M1.09253,16.45249L1.09253,1.9590200000000006C1.09253,1.4685300000000008 1.49817,1.0702800000000008 1.99945,1.0702800000000008L9.27124,1.0702800000000008C9.470730000000001,1.0770900000000008 9.658100000000001,0.9765600000000008 9.76,0.8082800000000008C9.861699999999999,0.6400000000000008 9.861699999999999,0.43065000000000075 9.76,0.26237000000000077C9.6581,0.09409000000000076 9.47073,-0.006439999999999224 9.27124,0.0003700000000007586L1.9994500000000004,0.0003700000000007586C0.8953800000000003,0.0003700000000007586 0.0003900000000003345,0.8771400000000008 4.440892098500626e-16,1.9590300000000007L4.440892098500626e-16,16.4525C4.440892098500626e-16,17.534570000000002 0.8951800000000004,18.41189 1.9994500000000004,18.41189L17.558880000000002,18.41189C18.663140000000002,18.41189 19.55833,17.53456 19.55833,16.4525L19.55833,6.56826C19.55833,6.27238 19.313660000000002,6.032660000000001 19.011670000000002,6.032660000000001C18.70989,6.032660000000001 18.465210000000003,6.272380000000001 18.465210000000003,6.56826L18.465210000000003,16.4525C18.465210000000003,16.94299 18.05937,17.34124 17.558290000000003,17.34124L1.999450000000003,17.34124C1.498560000000003,17.34124 1.092530000000003,16.94336 1.092530000000003,16.4525z " /><path  id="Path" style="stroke:#FFFFFF; stroke-width:1; stroke-opacity:1; stroke-dasharray:0 0" transform="translate(0.3127502521651202 3.191576806278476)  rotate(0 9.779163506230445 9.20594306133853)" d="M1.09253,16.45249L1.09253,1.9590200000000006C1.09253,1.4685300000000008 1.49817,1.0702800000000008 1.99945,1.0702800000000008L9.27124,1.0702800000000008C9.470730000000001,1.0770900000000008 9.658100000000001,0.9765600000000008 9.76,0.8082800000000008C9.861699999999999,0.6400000000000008 9.861699999999999,0.43065000000000075 9.76,0.26237000000000077C9.6581,0.09409000000000076 9.47073,-0.006439999999999224 9.27124,0.0003700000000007586L1.9994500000000004,0.0003700000000007586C0.8953800000000003,0.0003700000000007586 0.0003900000000003345,0.8771400000000008 4.440892098500626e-16,1.9590300000000007L4.440892098500626e-16,16.4525C4.440892098500626e-16,17.534570000000002 0.8951800000000004,18.41189 1.9994500000000004,18.41189L17.558880000000002,18.41189C18.663140000000002,18.41189 19.55833,17.53456 19.55833,16.4525L19.55833,6.56826C19.55833,6.27238 19.313660000000002,6.032660000000001 19.011670000000002,6.032660000000001C18.70989,6.032660000000001 18.465210000000003,6.272380000000001 18.465210000000003,6.56826L18.465210000000003,16.4525C18.465210000000003,16.94299 18.05937,17.34124 17.558290000000003,17.34124L1.999450000000003,17.34124C1.498560000000003,17.34124 1.092530000000003,16.94336 1.092530000000003,16.4525z " /><path id="Path" fill-rule="evenodd" style="fill:#FFFFFF" transform="translate(9.911913864113785 0.3848296083599321)  rotate(0 5.975432434052595 6.334778434292405)" opacity="1" d="M0.88628,12.58518C1.06889,12.47508 1.17489,12.27554 1.16211,12.06598C1.1559,11.604429999999999 1.18996,11.14148 1.26357,10.6779C1.60668,8.4957 2.82328,6.5376199999999995 4.64387,5.237089999999999C6.210509999999999,4.112539999999999 8.12396,3.5498899999999995 10.06359,3.6433899999999992L8.50687,5.169059999999999C8.29725,5.394069999999999 8.305259999999999,5.740959999999999 8.525269999999999,5.956349999999999C8.745289999999999,6.171729999999998 9.099269999999999,6.179329999999998 9.32861,5.973709999999999L11.711369999999999,3.638579999999999C12.03094,3.3255199999999987 12.03094,2.815569999999999 11.70994,2.501109999999999L11.46961,2.2654599999999987L9.325859999999999,0.16661999999999866C9.179219999999999,0.022949999999998666 8.965419999999998,-0.03318000000000135 8.76513,0.01939999999999867C8.56471,0.07197999999999867 8.408159999999999,0.22540999999999867 8.3545,0.42178999999999867C8.300839999999999,0.6181699999999987 8.35809,0.8275999999999987 8.50484,0.9713999999999987L10.07052,2.5051799999999984C5.21895,2.2941099999999985 0.8800699999999999,5.691189999999999 0.11593000000000053,10.503599999999999C0.03335000000000053,11.025079999999999 -0.005609999999999463,11.55201 0.0006000000000005307,12.079569999999999C-0.00692999999999947,12.289499999999999 0.10386000000000054,12.486389999999998 0.28909000000000057,12.592179999999999C0.4742100000000006,12.69784 0.7037900000000006,12.695179999999999 0.8862700000000006,12.585209999999998z " /><path  id="Path" style="stroke:#FFFFFF; stroke-width:0.8; stroke-opacity:1; stroke-dasharray:0 0" transform="translate(9.911913864113785 0.3848296083599321)  rotate(0 5.975432434052595 6.334778434292405)" d="M0.88628,12.58518C1.06889,12.47508 1.17489,12.27554 1.16211,12.06598C1.1559,11.604429999999999 1.18996,11.14148 1.26357,10.6779C1.60668,8.4957 2.82328,6.5376199999999995 4.64387,5.237089999999999C6.210509999999999,4.112539999999999 8.12396,3.5498899999999995 10.06359,3.6433899999999992L8.50687,5.169059999999999C8.29725,5.394069999999999 8.305259999999999,5.740959999999999 8.525269999999999,5.956349999999999C8.745289999999999,6.171729999999998 9.099269999999999,6.179329999999998 9.32861,5.973709999999999L11.711369999999999,3.638579999999999C12.03094,3.3255199999999987 12.03094,2.815569999999999 11.70994,2.501109999999999L11.46961,2.2654599999999987L9.325859999999999,0.16661999999999866C9.179219999999999,0.022949999999998666 8.965419999999998,-0.03318000000000135 8.76513,0.01939999999999867C8.56471,0.07197999999999867 8.408159999999999,0.22540999999999867 8.3545,0.42178999999999867C8.300839999999999,0.6181699999999987 8.35809,0.8275999999999987 8.50484,0.9713999999999987L10.07052,2.5051799999999984C5.21895,2.2941099999999985 0.8800699999999999,5.691189999999999 0.11593000000000053,10.503599999999999C0.03335000000000053,11.025079999999999 -0.005609999999999463,11.55201 0.0006000000000005307,12.079569999999999C-0.00692999999999947,12.289499999999999 0.10386000000000054,12.486389999999998 0.28909000000000057,12.592179999999999C0.4742100000000006,12.69784 0.7037900000000006,12.695179999999999 0.8862700000000006,12.585209999999998z " /></g></g></g></g></g></g></svg>