<svg xmlns="http://www.w3.org/2000/svg" xmlns:xlink="http://www.w3.org/1999/xlink" width="36" height="36" viewBox="0 0 36 36" fill="none"><defs><linearGradient id="linear_0" x1="50%" y1="4.6433580729168416%" x2="51%" y2="100%" gradientUnits="objectBoundingBox"><stop offset="0" stop-color="#FF7B6E" stop-opacity="1" /><stop offset="0.5266803155083374" stop-color="#FF6D6F" stop-opacity="1" /><stop offset="1" stop-color="#FF5371" stop-opacity="1" /></linearGradient><filter id="filter_6" x="-3.2966629909113347" y="-2.9713349109573013" width="41.79759476152284" height="41.79759476152284" filterUnits="userSpaceOnUse" color-interpolation-filters="sRGB"><feFlood flood-opacity="0" result="BackgroundImageFix"/>
          <feColorMatrix in="SourceAlpha" type="matrix" values="0 0 0 0 0 0 0 0 0 0 0 0 0 0 0 0 0 0 127 0"/>
          <feOffset dx="0" dy="2"/>
          <feGaussianBlur stdDeviation="2"/>
          <feColorMatrix type="matrix" values="0 0 0 0 1 0 0 0 0 0.3176470588235294 0 0 0 0 0.3137254901960784 0 0 0 0.39 0"/>
          <feBlend mode="normal" in2="BackgroundImageFix" result="effect1_Shadow"/>
          <feBlend mode="normal" in="SourceGraphic" in2="effect1_Shadow" result="shape"/></filter><filter id="filter_12" x="-12.613749886685955" y="-5.021064611724963" width="41.929301693544815" height="42.28618212362933" filterUnits="userSpaceOnUse" color-interpolation-filters="sRGB"><feFlood flood-opacity="0" result="BackgroundImageFix"/>
          <feColorMatrix in="SourceAlpha" type="matrix" values="0 0 0 0 0 0 0 0 0 0 0 0 0 0 0 0 0 0 127 0"/>
          <feOffset dx="0" dy="2"/>
          <feGaussianBlur stdDeviation="7.5"/>
          <feColorMatrix type="matrix" values="0 0 0 0 1 0 0 0 0 0.1607843137254902 0 0 0 0 0.15294117647058825 0 0 0 1 0"/>
          <feBlend mode="normal" in2="BackgroundImageFix" result="effect1_Shadow"/>
          <feBlend mode="normal" in="SourceGraphic" in2="effect1_Shadow" result="shape"/></filter><filter id="filter_16" x="0.998807962426161" y="8.5735803615736" width="14.60786063544651" height="2.0868372336352135" filterUnits="userSpaceOnUse" color-interpolation-filters="sRGB"></filter><filter id="filter_18" x="13.368573739723615" y="16.331385948348668" width="8.536234700272004" height="9.257457007641278" filterUnits="userSpaceOnUse" color-interpolation-filters="sRGB"></filter></defs><g opacity="1" transform="translate(0 0)  rotate(0 18 18)"><g opacity="1" transform="translate(0.8835641719011949 0.2339964352777315)  rotate(0 17.454545454545453 17.454545454545453)"><g opacity="1" transform="translate(0 0)  rotate(0 17.454545454545453 17.454545454545453)"><g id="Oval Copy 5" filter="url(#filter_6)"><path id="Oval Copy 5" fill-rule="evenodd" fill="url(#linear_0)" transform="translate(0.7033370090886654 1.0286650890426987)  rotate(0 16.89879738076142 16.89879738076142)" opacity="1" d="M33.79759,16.8988C33.79759,7.565930000000002 26.231659999999998,0 16.898789999999998,0C7.565919999999998,0 -0.000010000000003174137,7.56593 -0.000010000000003174137,16.8988C-0.000010000000003174137,26.23167 7.565919999999997,33.7976 16.898789999999998,33.7976C26.231659999999998,33.7976 33.79759,26.23167 33.79759,16.8988z " /></g><g opacity="1" transform="translate(9.420316208031904 5.295782616274457)  rotate(0 8.181818181818182 11.454545454545453)"><g opacity="1" transform="translate(0 0)  rotate(0 8.181818181818182 11.454545454545453)"><g id="Rectangle" filter="url(#filter_12)"><path id="Rectangle" fill-rule="evenodd" style="fill:#FFFFFF" transform="translate(2.3862501133140457 9.978935388275037)  rotate(0 5.964650846772408 6.143091061814666)" opacity="1" d="M1.020794499607955,11.375556652722661C1.0670602849721484,11.891134531223397 1.4991428336087185,12.286179999999998 2.0167923981740583,12.286179999999998L9.674052569494316,12.28618C10.183764926915005,12.286180000000002 10.611911395080126,11.902805908130823 10.667983371324036,11.39618709601716L11.929300000000001,0L1.7763568394002505e-15,0z " /></g><path id="Combined Shape" fill-rule="evenodd" style="fill:#FFFFFF" transform="translate(2.3862501133140457 0.9802956488743306)  rotate(0 5.964650846772398 4.068114683197078)" opacity="1" d="M5.40986,0.69563c0,-0.38419 0.31144,-0.69561 0.69563,-0.69561h5.1282c0.3842,0 0.69563,0.31142 0.69563,0.69561c0,0.38419 -0.31144,0.69561 -0.69563,0.69561h-4.43258l0,1.38217c1.33643,0.05976 2.60587,0.61693 3.55589,1.56694c1.00673,1.00673 1.57231,2.37215 1.57231,3.79588h-11.9293c0,-1.42373 0.56558,-2.78915 1.57231,-3.79588c1.00673,-1.00673 2.37215,-1.57231 3.79588,-1.57231l0.04167,0z " /><path id="Rectangle" fill-rule="evenodd" style="fill:#FFFFFF" transform="translate(0.998807962426161 8.5735803615736)  rotate(0 7.303930317723255 1.0434186168176065)" opacity="1" d="M6.389104815831656e-17,1.04342C0,1.3201521898283772 0.10993143437408415,1.5855501496254192 0.30561064237433233,1.7812293576256675C0.5012898503745806,1.9769085656259158 0.7666878101716226,2.08684 1.0434199999999996,2.08684L13.564440000000001,2.08684C14.140704953668447,2.0868399999999996 14.607859999999999,1.6196849536684461 14.607859999999999,1.04342L14.60786,1.04342C14.607859999999999,0.46715504633155325 14.140704953668445,-2.220446049250313e-16 13.56444,-2.220446049250313e-16L1.04342,0C0.766687810171623,-2.220446049250313e-16 0.5012898503745807,0.10993143437408415 0.30561064237433233,0.30561064237433244C0.10993143437408404,0.5012898503745808 -2.220446049250313e-16,0.766687810171623 -2.220446049250313e-16,1.0434200000000002z " /></g></g></g><path id="Rectangle" fill-rule="evenodd" style="fill:#FF696A" transform="translate(13.368573739723615 16.331385948348668)  rotate(0 4.268117350136002 4.628728503820638)" opacity="1" d="M0.7510477849904559,8.353405783038426C0.8004714274523347,8.866149834591042 1.2313138179854044,9.257460000000002 1.746434346441405,9.257460000000002L6.646818994194119,9.25746C7.155008305045888,9.25746 7.582384808995111,8.876308108860123 7.640303178293619,8.371430066000466L8.53623,0.5615799999999993C8.53623,0.5615799999999993 7.60954,1.2621199999999995 6.8035,1.2621199999999995C6.529904363636364,1.2621199999999995 6.15128469201102,1.1167386108356285 5.770445028733617,0.9246589572730051C4.8450727524525705,0.4562951981083816 3.750161974205736,0.4651498610389093 2.8324856534091847,0.9484185553050342 " /></g></g></svg>