<svg xmlns="http://www.w3.org/2000/svg" xmlns:xlink="http://www.w3.org/1999/xlink" width="36" height="36" viewBox="0 0 36 36" fill="none"><defs><linearGradient id="linear_0" x1="50%" y1="4.6433580729168416%" x2="51%" y2="100%" gradientUnits="objectBoundingBox"><stop offset="0" stop-color="#FF894E" stop-opacity="1" /><stop offset="1" stop-color="#FF4F51" stop-opacity="1" /></linearGradient><filter id="filter_2" x="-2.909090909090909" y="-2.909090909090909" width="41.79759476152284" height="41.79759476152284" filterUnits="userSpaceOnUse" color-interpolation-filters="sRGB"><feFlood flood-opacity="0" result="BackgroundImageFix"/>
          <feColorMatrix in="SourceAlpha" type="matrix" values="0 0 0 0 0 0 0 0 0 0 0 0 0 0 0 0 0 0 127 0"/>
          <feOffset dx="0" dy="2"/>
          <feGaussianBlur stdDeviation="2"/>
          <feColorMatrix type="matrix" values="0 0 0 0 1 0 0 0 0 0.30980392156862746 0 0 0 0 0.3137254901960784 0 0 0 0.47 0"/>
          <feBlend mode="normal" in2="BackgroundImageFix" result="effect1_Shadow"/>
          <feBlend mode="normal" in="SourceGraphic" in2="effect1_Shadow" result="shape"/></filter></defs><g opacity="1" transform="translate(0 0)  rotate(0 18 18)"><g id="Oval" filter="url(#filter_2)"><path id="Oval" fill-rule="evenodd" fill="url(#linear_0)" transform="translate(1.0909090909090908 1.0909090909090908)  rotate(0 16.89879738076142 16.89879738076142)" opacity="1" d="M33.79759,16.8988C33.79759,7.565930000000002 26.231659999999998,0 16.898789999999998,0C7.565919999999998,0 -0.000010000000003174137,7.56593 -0.000010000000003174137,16.8988C-0.000010000000003174137,26.23167 7.565919999999997,33.7976 16.898789999999998,33.7976C26.231659999999998,33.7976 33.79759,26.23167 33.79759,16.8988z " /></g><g opacity="1" transform="translate(8.592254926655599 7.019400413251953)  rotate(0 10.363636363636363 10.363636363636363)"><g opacity="1" transform="translate(0.14679187814710362 0.8569126556313593)  rotate(0 9.818181818181817 9.818181818181817)"><path id="Shape" fill-rule="evenodd" style="fill:#FFFFFF" transform="translate(0.41081630594800866 0.6112539963671472)  rotate(0 9.108388986895669 8.987855085229892)" opacity="1" d="M8.7136,17.97571h-5.20649c-0.63274,0 -1.14568,-0.51296 -1.14568,-1.14567v-4.25335h6.35217z M9.50317,17.97571v-5.39902h6.35217v4.25335c0,0.63271 -0.51294,1.14567 -1.14568,1.14567z M15.84458,7.88995c0.00711,0.05139 0.01075,0.10384 0.01075,0.15712v3.74005h-6.35219v-3.89718h-0.78952v3.89718h-6.35219v-3.74005c0,-0.05328 0.00365,-0.10573 0.01075,-0.15712h-1.22654c-0.63267,0 -1.14565,-0.51298 -1.14565,-1.14571v-0.96584c0,-0.63273 0.51298,-1.14571 1.14565,-1.14571h4.27785c-0.07706,-0.05977 -0.15302,-0.12224 -0.22789,-0.18742c-1.43566,-1.24802 -1.9113,-2.99758 -1.0624,-3.9079c0.8489,-0.9102 2.70082,-0.63638 4.1363,0.61152c0.27088,0.23551 0.50752,0.48881 0.70772,0.75096c0.20002,-0.26215 0.43666,-0.51545 0.70754,-0.75096c1.43548,-1.24791 3.2874,-1.52172 4.1363,-0.61152c0.8489,0.91032 0.37326,2.65988 -1.06222,3.9079c-0.07487,0.06519 -0.15101,0.12766 -0.22807,0.18742h4.54035c0.63267,0 1.14565,0.51298 1.14565,1.14571v0.96584c0,0.63273 -0.51298,1.14571 -1.14565,1.14571z " /></g></g></g></svg>