<svg xmlns="http://www.w3.org/2000/svg" xmlns:xlink="http://www.w3.org/1999/xlink" width="26" height="28" viewBox="0 0 26 28" fill="none"><g opacity="1" transform="translate(-2.220446049250313e-16 0)  rotate(0 13 14)"><path  id="Path" style="stroke:#74A1B9; stroke-width:1.262903225806452; stroke-opacity:1; stroke-dasharray:0 0" transform="translate(1.051143263074323 1.243944154619489)  rotate(0 12.20806451613615 4.630645161290327)" d="M24.41613,9.26129L4.60952,9.26129C2.06365,9.26129 0,7.18806 0,4.6306400000000005C0,2.0732300000000006 2.06365,-0.000009999999999621423 4.60952,-0.000009999999999621423L20.794414516129034,-0.00000999999999972453C21.259402644212376,-0.000009999999998622222 21.636349999999997,0.3769373557876232 21.63635,0.8419254838709678L21.63635,3.9612300000000005 " /><path  id="Path" style="stroke:#74A1B9; stroke-width:1.262903225806452; stroke-opacity:1; stroke-dasharray:0 0" transform="translate(16.88245398081916 15.30866531525604)  rotate(0 4.437311184291427 2.946774193548399)" d="M8.61069,5.89355C7.438969999999999,5.89355 5.68135,5.89355 3.3378300000000003,5.89355C1.4943900000000003,5.89355 4.440892098500626e-16,4.57422 4.440892098500626e-16,2.9467800000000004C4.440892098500626e-16,1.3193400000000004 1.4944000000000004,0.000010000000000509601 3.3378300000000003,0.000010000000000509601C5.79867,0.000010000000000509601 7.64424,0.000010000000000509601 8.87462,0.000010000000000509601 " /><path  id="Path" style="stroke:#74A1B9; stroke-width:1.262903225806452; stroke-opacity:1; stroke-dasharray:0 0" transform="translate(1.051143263074357 5.205164554281786)  rotate(0 12.20806451613458 10.66393475841871)" d="M5.97536,5.3277L5.97536,1.6838709677419355C5.97536,0.7538947115752453 6.729254711575245,6.661338147750939e-16 7.6592309677419355,0L22.732259032258067,-2.0621471908223172e-16C23.662235288424753,0 24.41613,0.7538947115752446 24.41613,1.6838709677419352L24.416130000000003,19.643999032258066C24.41613,20.573975288424755 23.662235288424757,21.32787 22.732259032258064,21.32787L4.209590000000002,21.32787C1.8846900000000022,21.32787 0.000010000000002285958,19.49154 0.000010000000002285958,17.22631L0.000010000000002285958,7.281980000000001L0.000010000000002285958,0.5479200000000004 " /></g></svg>