<svg xmlns="http://www.w3.org/2000/svg" xmlns:xlink="http://www.w3.org/1999/xlink" width="24" height="23" viewBox="0 0 24 23" fill="none"><g opacity="0.8" transform="translate(0 0)  rotate(0 12 11.5)"><path id="Shape" fill-rule="evenodd" style="fill:#FFFFFF" transform="translate(0 0.08441680657415418)  rotate(0 11.58169863312 11.179320524596418)" opacity="1" d="M5.79083,11.49414c-0.79949,0 -1.44768,-0.64297 -1.44768,-1.43672c0,-0.79349 0.64821,-1.43678 1.44768,-1.43678c0.79952,0 1.44768,0.64335 1.44768,1.43678c0,0.79375 -0.64818,1.43672 -1.44768,1.43672z M17.3725,11.49414c-0.79951,0 -1.4477,-0.64297 -1.4477,-1.43672c0,-0.79349 0.64822,-1.43678 1.4477,-1.43678c0.79954,0 1.4477,0.64335 1.4477,1.43678c0.00003,0.79375 -0.64822,1.43672 -1.4477,1.43672z M11.58166,11.49414c-0.79951,0 -1.44771,-0.64297 -1.44771,-1.43672c0,-0.79349 0.64826,-1.43678 1.44771,-1.43678c0.79951,0 1.44771,0.64335 1.44771,1.43678c0.00003,0.79375 -0.6482,1.43672 -1.44771,1.43672z M23.1634,10.05743c-0.00001,5.55467 -5.18582,10.0572 -11.5817,10.0572c-0.74076,0 -1.46254,-0.06657 -2.16485,-0.18167l-3.83346,2.30841c-0.25272,0.15218 -0.56779,0.15653 -0.82462,0.01139c-0.25683,-0.14514 -0.41563,-0.4173 -0.41563,-0.7123v-3.63839c-2.64549,-1.84381 -4.34314,-4.67022 -4.34314,-7.84464c0,-5.55466 5.18536,-10.05743 11.5817,-10.05743c6.39588,0 11.58169,4.50276 11.5817,10.05742z M1.94186,10.09012c0,2.77884 1.62893,5.23059 4.11426,6.71345l-0.03336,2.43775c-0.00203,0.14819 0.07625,0.28589 0.20462,0.35995c0.12837,0.07406 0.28676,0.0729 0.41404,-0.00304l2.6126,-1.55879c0.7467,0.15824 1.52347,0.25089 2.32762,0.25089c5.32425,0 9.63979,-3.671 9.63979,-8.20021c0,-4.5285 -4.31554,-8.20021 -9.63979,-8.20021c-5.32386,0 -9.63979,3.6717 -9.63979,8.20021z " /></g></svg>