<svg xmlns="http://www.w3.org/2000/svg" xmlns:xlink="http://www.w3.org/1999/xlink" width="22.956521739130437" height="21.600000000000023" viewBox="0 0 22.956521739130437 21.600000000000023" fill="none"><g opacity="1" transform="translate(2.1316282072803006e-14 0)  rotate(0 11.478260869565222 10.8)"><path id="Shape" fill-rule="evenodd" style="fill:#FFFFFF" transform="translate(7.071428571428355 6.372670807453962)  rotate(0 4.509316770186338 4.427329192546585)" opacity="1" d="M4.50931,8.85466c-2.48788,0 -4.50932,-1.98468 -4.50932,-4.42733c0,-2.44265 2.02144,-4.42733 4.50932,-4.42733c2.48788,0 4.50932,1.98468 4.50932,4.42733c0,2.44265 -2.02144,4.42733 -4.50932,4.42733z M1.78818,4.42733c0,1.45034 1.24394,2.67166 2.72114,2.67166c1.4772,0 2.72114,-1.22132 2.72114,-2.67166c0,-1.45034 -1.24394,-2.67166 -2.72114,-2.67166c-1.4772,0 -2.72114,1.22132 -2.72114,2.67166z " /><path id="Shape" fill-rule="evenodd" style="fill:#FFFFFF" transform="translate(0 0)  rotate(0 11.47826086956522 10.8)" opacity="1" d="M13.20574,0.87868c0.53741,-0.76183 1.53556,-1.06661 2.38013,-0.76183c1.15173,0.45705 2.22655,1.06639 3.2247,1.82822c0.69099,0.60956 0.92124,1.59992 0.53741,2.43778c-0.23026,0.60955 -0.23026,1.29514 0.07667,1.82844c0.30716,0.5333 0.92147,0.91411 1.53556,0.99036c0.99815,0.07624 1.68914,0.76183 1.84272,1.67594c0.07691,0.60955 0.15358,1.29514 0.15358,1.90469c0,0.60933 -0.07668,1.21888 -0.15358,1.82822c-0.15358,0.91432 -0.92125,1.59991 -1.84272,1.67594c-0.69099,0.07625 -1.2284,0.45727 -1.53556,0.99036c-0.30692,0.5333 -0.38383,1.2191 -0.07667,1.82844c0.38384,0.83808 0.15358,1.90448 -0.53741,2.43778c-0.92147,0.76183 -2.07297,1.37138 -3.2247,1.82844c-0.84457,0.30478 -1.84272,0 -2.45681,-0.76183c-0.38407,-0.5333 -0.99815,-0.83808 -1.61247,-0.83808c-0.69099,0 -1.30508,0.30478 -1.68914,0.83808c-0.30693,0.68558 -0.99792,0.99036 -1.61224,0.99036c-0.23025,0 -0.46074,-0.07625 -0.69099,-0.15228c-1.15173,-0.45727 -2.22655,-1.06661 -3.2247,-1.82844c-0.69099,-0.60956 -0.92124,-1.59992 -0.53741,-2.43778c0.23026,-0.60955 0.23026,-1.29514 -0.07667,-1.82844c-0.30716,-0.5333 -0.92147,-0.91411 -1.53556,-0.99036c-0.99815,-0.07624 -1.68914,-0.76183 -1.84272,-1.67594c-0.23049,-0.60955 -0.30716,-1.29513 -0.30716,-1.90447c0,-0.60955 0.07668,-1.21889 0.15358,-1.82844c0.15358,-0.91411 0.92125,-1.59991 1.84272,-1.67594c0.69099,-0.07625 1.2284,-0.45706 1.53556,-0.99036c0.30692,-0.5333 0.38383,-1.21889 0.07667,-1.82844c-0.38383,-0.91411 -0.15358,-1.90447 0.61432,-2.51402c0.99792,-0.76183 2.07297,-1.37116 3.22447,-1.82822c0.84457,-0.30478 1.84272,0 2.45704,0.76183c0.38384,0.53308 0.99815,0.83786 1.61224,0.83786c0.69099,0 1.30531,-0.30477 1.68914,-0.83786z M8.44562,1.86892c-0.15369,-0.0761 -0.23044,-0.15238 -0.30718,-0.15238h-0.07675c-0.9981,0.45714 -1.91946,0.91427 -2.76407,1.59988c-0.07675,0.0761 -0.07675,0.30476 0,0.38086c0.53742,1.14275 0.46068,2.43788 -0.15349,3.42825c-0.61417,1.06647 -1.68922,1.75208 -2.91756,1.90446c-0.15349,0 -0.30718,0.07628 -0.30718,0.22866c-0.07675,0.53323 -0.15349,0.99037 -0.15349,1.5236c0,0.53323 0.07675,1.06647 0.15349,1.5997c0,0.15238 0.15369,0.22866 0.30718,0.22866c1.22834,0.15238 2.30339,0.83799 2.91756,1.90446c0.61417,1.06665 0.69092,2.2855 0.15349,3.42825c-0.07675,0.15238 -0.07675,0.30476 0.07675,0.38086c0.84461,0.68561 1.76596,1.14275 2.76407,1.5236c0.15349,0.07628 0.30718,-0.0761 0.38393,-0.15238c0.69092,-0.99037 1.84271,-1.5997 3.07105,-1.5997c1.22854,0 2.38013,0.53323 3.07105,1.5236c0.07694,0.0761 0.23044,0.22848 0.38393,0.15238c0.9981,-0.38104 1.91946,-0.91427 2.68732,-1.59988c0.07675,-0.0761 0.07675,-0.22848 0.07675,-0.38086c-0.53742,-1.14275 -0.46068,-2.43788 0.15349,-3.42825c0.61417,-1.06647 1.68922,-1.75208 2.91756,-1.90446c0.15349,0 0.30718,-0.07628 0.30718,-0.22866c0.07675,-0.53323 0.15349,-0.99037 0.15349,-1.5236c0,-0.53323 -0.07675,-1.06647 -0.15349,-1.5997c0,-0.15238 -0.15369,-0.22866 -0.30718,-0.22866c-1.22834,-0.15238 -2.30339,-0.83799 -2.91756,-1.90446c-0.61417,-1.06665 -0.69092,-2.2855 -0.15349,-3.42825c0.07675,-0.15238 0.07675,-0.30476 -0.07675,-0.38086c-0.84461,-0.68561 -1.76596,-1.14275 -2.76407,-1.5236c-0.15349,-0.07628 -0.30718,0.0761 -0.38393,0.15238c-0.69092,0.99037 -1.84271,1.5997 -3.07105,1.5997c-1.22854,0 -2.38013,-0.53323 -3.07105,-1.5236z " /></g></svg>